<?xml version="1.0" encoding="UTF-8"?>
<!DOCTYPE svg PUBLIC "-//W3C//DTD SVG 1.1//EN" "http://www.w3.org/Graphics/SVG/1.1/DTD/svg11.dtd">
<!-- Creator: CorelDRAW -->
<svg xmlns="http://www.w3.org/2000/svg" xml:space="preserve" width="0.519933in" height="0.519933in" version="1.1" style="shape-rendering:geometricPrecision; text-rendering:geometricPrecision; image-rendering:optimizeQuality; fill-rule:evenodd; clip-rule:evenodd"
viewBox="0 0 519.93 519.93"
 xmlns:xlink="http://www.w3.org/1999/xlink"
 xmlns:xodm="http://www.corel.com/coreldraw/odm/2003">
 <defs>
  <style type="text/css">
   <![CDATA[
    .fil6 {fill:#0D0D0D;fill-rule:nonzero}
    .fil0 {fill:#1A1A1A;fill-rule:nonzero}
    .fil1 {fill:#2A2A2A;fill-rule:nonzero}
    .fil2 {fill:#F5C518;fill-rule:nonzero}
    .fil5 {fill:#F5C518;fill-rule:nonzero;fill-opacity:0.301961}
    .fil4 {fill:#F5C518;fill-rule:nonzero;fill-opacity:0.501961}
    .fil3 {fill:#F5C518;fill-rule:nonzero;fill-opacity:0.800000}
   ]]>
  </style>
 </defs>
 <g id="Layer_x0020_1">
  <metadata id="CorelCorpID_0Corel-Layer"/>
  <g id="_2081344196496">
   <g>
    <path class="fil0" d="M113.87 2.15l292.19 0c61.68,0 111.72,50.04 111.72,111.72l0 292.19c0,61.68 -50.04,111.72 -111.72,111.72l-292.19 0c-61.7,0 -111.72,-50.04 -111.72,-111.72l0 -292.19c0,-61.68 50.02,-111.72 111.72,-111.72z"/>
    <path id="_1" class="fil1" d="M406.06 4.31l-292.19 0 0 -4.31 292.19 0 0 0 0 4.31zm113.87 109.56l-4.31 0 0 0 -0.14 -5.64 -0.43 -5.57 -0.69 -5.48 -0.96 -5.39 -1.22 -5.3 -1.48 -5.2 -1.72 -5.09 -1.96 -4.97 -2.19 -4.85 -2.42 -4.72 -2.64 -4.59 -2.85 -4.44 -3.06 -4.3 -3.25 -4.14 -3.44 -3.98 -3.63 -3.8 -3.81 -3.63 -3.97 -3.44 -4.14 -3.25 -4.3 -3.06 -4.44 -2.85 -4.59 -2.64 -4.72 -2.42 -4.85 -2.19 -4.98 -1.96 -5.09 -1.72 -5.2 -1.48 -5.3 -1.22 -5.39 -0.96 -5.48 -0.69 -5.57 -0.43 -5.64 -0.14 0 -4.31 5.86 0.15 5.78 0.44 5.7 0.72 5.61 1 5.5 1.27 5.41 1.53 5.29 1.79 5.17 2.04 5.04 2.28 4.91 2.52 4.77 2.74 4.62 2.96 4.46 3.18 4.3 3.38 4.13 3.58 3.95 3.77 3.77 3.95 3.58 4.13 3.38 4.3 3.18 4.46 2.96 4.62 2.74 4.77 2.52 4.91 2.28 5.04 2.04 5.17 1.79 5.3 1.53 5.4 1.27 5.51 1 5.61 0.72 5.7 0.44 5.78 0.15 5.86 0 0zm-4.31 292.19l0 -292.19 4.31 0 0 292.19 0 0 -4.31 0zm-109.57 113.87l0 -4.31 0 0 5.64 -0.14 5.57 -0.43 5.48 -0.69 5.39 -0.96 5.3 -1.22 5.2 -1.48 5.09 -1.72 4.98 -1.96 4.85 -2.19 4.72 -2.42 4.59 -2.64 4.44 -2.85 4.3 -3.06 4.14 -3.25 3.97 -3.44 3.81 -3.63 3.63 -3.81 3.44 -3.97 3.25 -4.14 3.06 -4.3 2.85 -4.44 2.64 -4.59 2.42 -4.72 2.19 -4.85 1.96 -4.98 1.72 -5.09 1.48 -5.2 1.22 -5.3 0.96 -5.39 0.69 -5.48 0.43 -5.57 0.14 -5.64 4.31 0 -0.15 5.86 -0.44 5.78 -0.72 5.7 -1 5.61 -1.27 5.5 -1.53 5.41 -1.79 5.29 -2.04 5.17 -2.28 5.04 -2.52 4.91 -2.74 4.77 -2.96 4.62 -3.18 4.46 -3.38 4.3 -3.58 4.13 -3.77 3.95 -3.95 3.77 -4.13 3.58 -4.3 3.38 -4.46 3.18 -4.62 2.96 -4.77 2.74 -4.91 2.52 -5.04 2.28 -5.17 2.04 -5.29 1.79 -5.41 1.53 -5.5 1.27 -5.61 1 -5.7 0.72 -5.78 0.44 -5.86 0.15 0 0zm-292.19 -4.31l292.19 0 0 4.31 -292.19 0 0 0 0 -4.31zm-113.87 -109.57l4.31 0 0 0 0.14 5.64 0.43 5.57 0.69 5.48 0.96 5.39 1.22 5.3 1.48 5.2 1.72 5.09 1.96 4.98 2.19 4.85 2.42 4.72 2.64 4.59 2.85 4.44 3.06 4.3 3.25 4.14 3.44 3.97 3.63 3.81 3.81 3.63 3.97 3.44 4.14 3.25 4.3 3.06 4.44 2.85 4.59 2.64 4.72 2.42 4.85 2.19 4.98 1.96 5.09 1.72 5.2 1.48 5.3 1.22 5.39 0.96 5.48 0.69 5.57 0.43 5.64 0.14 0 4.31 -5.86 -0.15 -5.78 -0.44 -5.7 -0.72 -5.61 -1 -5.5 -1.27 -5.41 -1.53 -5.29 -1.79 -5.17 -2.04 -5.04 -2.28 -4.91 -2.52 -4.77 -2.74 -4.62 -2.96 -4.46 -3.18 -4.3 -3.38 -4.13 -3.58 -3.96 -3.77 -3.76 -3.95 -3.58 -4.13 -3.39 -4.3 -3.17 -4.46 -2.96 -4.62 -2.74 -4.77 -2.52 -4.91 -2.28 -5.04 -2.04 -5.17 -1.79 -5.29 -1.54 -5.41 -1.27 -5.51 -1 -5.61 -0.72 -5.7 -0.44 -5.78 -0.15 -5.86 0 0zm4.31 -292.19l0 292.19 -4.31 0 0 -292.19 0 0 4.31 0zm109.56 -113.87l0 4.31 0 0 -5.64 0.14 -5.57 0.43 -5.48 0.69 -5.39 0.96 -5.3 1.22 -5.2 1.48 -5.09 1.72 -4.98 1.96 -4.85 2.19 -4.72 2.42 -4.59 2.64 -4.44 2.85 -4.3 3.06 -4.14 3.25 -3.97 3.44 -3.81 3.63 -3.63 3.81 -3.44 3.98 -3.26 4.14 -3.06 4.3 -2.85 4.44 -2.64 4.59 -2.42 4.72 -2.19 4.85 -1.96 4.97 -1.72 5.09 -1.48 5.2 -1.22 5.3 -0.96 5.4 -0.69 5.48 -0.43 5.57 -0.14 5.64 -4.31 0 0.15 -5.86 0.44 -5.78 0.72 -5.7 1 -5.6 1.27 -5.51 1.54 -5.4 1.79 -5.3 2.04 -5.17 2.28 -5.04 2.52 -4.91 2.74 -4.77 2.96 -4.62 3.17 -4.46 3.38 -4.3 3.58 -4.13 3.77 -3.95 3.95 -3.77 4.13 -3.58 4.3 -3.38 4.46 -3.18 4.62 -2.96 4.77 -2.74 4.91 -2.52 5.04 -2.28 5.17 -2.04 5.29 -1.79 5.41 -1.53 5.5 -1.27 5.61 -1 5.7 -0.72 5.78 -0.44 5.86 -0.15 0 0z"/>
   </g>
   <path class="fil2" d="M111.71 96.68l296.49 0c13.05,0 23.64,10.59 23.64,23.63l0 0c0,13.05 -10.59,23.64 -23.64,23.64l-296.49 0c-13.05,0 -23.62,-10.59 -23.62,-23.64l0 0c0,-13.05 10.57,-23.63 23.64,-23.63l-0.02 0z"/>
   <path class="fil3" d="M109.57 182.62l300.78 0c11.87,0 21.49,9.63 21.49,21.49l0 0c0,11.85 -9.63,21.48 -21.49,21.48l-300.78 0c-11.85,0 -21.48,-9.63 -21.48,-21.48l0 0c0,-11.87 9.63,-21.49 21.48,-21.49z"/>
   <path class="fil4" d="M107.42 264.27l201.95 0c10.68,0 19.35,8.65 19.35,19.33l0 0c0,10.67 -8.66,19.33 -19.33,19.33l-201.96 0c-10.67,0 -19.33,-8.66 -19.33,-19.33l0 0c0,-10.68 8.66,-19.33 19.33,-19.33l0 0z"/>
   <path class="fil5" d="M107.42 341.61l133.2 0c10.68,0 19.35,8.65 19.35,19.33l0 0c0,10.67 -8.66,19.33 -19.33,19.33l-133.21 0c-10.67,0 -19.33,-8.67 -19.33,-19.33l0 0c0,-10.68 8.66,-19.33 19.33,-19.33l0 0z"/>
   <circle class="fil2" cx="388.87" cy="380.28" r="77.34"/>
   <g>
    <path class="fil6" d="M348.43 388.48c-4.53,-4.53 -4.53,-11.89 0,-16.41 4.53,-4.53 11.89,-4.53 16.41,0l-16.42 16.41zm21.48 21.49l-21.48 -21.49 16.42 -16.41 21.48 21.49 -0 16.41 -16.41 0zm16.42 -16.41c4.53,4.53 4.53,11.89 -0,16.41 -4.53,4.53 -11.89,4.53 -16.41,-0l16.42 -16.41zm38.67 -22.27l-38.68 38.68 -16.41 -16.41 38.68 -38.68 16.41 16.41zm-16.41 -16.41c4.53,-4.53 11.88,-4.53 16.41,0 4.53,4.53 4.53,11.88 0,16.41l-16.41 -16.41z"/>
   </g>
  </g>
 </g>
</svg>
