<?xml version="1.0" encoding="UTF-8"?>
<!DOCTYPE svg PUBLIC "-//W3C//DTD SVG 1.1//EN" "http://www.w3.org/Graphics/SVG/1.1/DTD/svg11.dtd">
<!-- Creator: CorelDRAW -->
<svg xmlns="http://www.w3.org/2000/svg" xml:space="preserve" width="0.702228in" height="0.702228in" version="1.1" style="shape-rendering:geometricPrecision; text-rendering:geometricPrecision; image-rendering:optimizeQuality; fill-rule:evenodd; clip-rule:evenodd"
viewBox="0 0 116.61 116.61"
 xmlns:xlink="http://www.w3.org/1999/xlink"
 xmlns:xodm="http://www.corel.com/coreldraw/odm/2003">
 <defs>
  <style type="text/css">
   <![CDATA[
    .fil0 {fill:#B7B7B7;fill-rule:nonzero}
   ]]>
  </style>
 </defs>
 <g id="Layer_x0020_1">
  <metadata id="CorelCorpID_0Corel-Layer"/>
  <path id="instagram-white-icon.svg" class="fil0" d="M38.87 58.34c-0.02,-10.73 8.67,-19.45 19.4,-19.47 10.73,-0.02 19.45,8.66 19.47,19.39 0.02,10.73 -8.67,19.45 -19.4,19.47 -10.73,0.02 -19.45,-8.66 -19.47,-19.4zm-10.5 0.02c0.03,16.54 13.46,29.91 29.99,29.88 16.53,-0.03 29.91,-13.46 29.88,-29.99 -0.03,-16.53 -13.46,-29.91 -30,-29.88 -16.53,0.03 -29.91,13.46 -29.88,29.99zm54 -31.22c0.01,3.86 3.15,6.99 7.01,6.98 3.86,-0.01 6.99,-3.15 6.98,-7.01 -0.01,-3.86 -3.15,-6.99 -7.01,-6.98 -3.86,0.01 -6.99,3.15 -6.98,7.01l0 0zm-47.53 78.66c-5.68,-0.25 -8.77,-1.19 -10.83,-1.98 -2.72,-1.05 -4.67,-2.32 -6.71,-4.35 -2.04,-2.04 -3.31,-3.98 -4.37,-6.69 -0.8,-2.06 -1.76,-5.14 -2.03,-10.82 -0.29,-6.15 -0.35,-7.99 -0.38,-23.56 -0.03,-15.56 0.03,-17.41 0.29,-23.56 0.24,-5.68 1.19,-8.77 1.98,-10.83 1.05,-2.73 2.31,-4.67 4.35,-6.71 2.04,-2.05 3.98,-3.31 6.7,-4.37 2.06,-0.8 5.14,-1.76 10.82,-2.03 6.15,-0.29 7.99,-0.35 23.55,-0.38 15.57,-0.03 17.41,0.02 23.56,0.29 5.68,0.25 8.77,1.19 10.82,1.98 2.73,1.05 4.67,2.31 6.71,4.35 2.04,2.04 3.31,3.97 4.37,6.7 0.8,2.05 1.76,5.14 2.03,10.82 0.29,6.15 0.36,7.99 0.39,23.56 0.03,15.57 -0.03,17.41 -0.3,23.56 -0.25,5.68 -1.19,8.77 -1.98,10.83 -1.05,2.72 -2.31,4.67 -4.35,6.71 -2.04,2.04 -3.97,3.31 -6.7,4.37 -2.05,0.8 -5.14,1.76 -10.82,2.03 -6.15,0.29 -7.99,0.35 -23.56,0.38 -15.56,0.03 -17.41,-0.03 -23.56,-0.29l-0 0zm-0.68 -105.4c-6.2,0.29 -10.44,1.29 -14.14,2.74 -3.83,1.49 -7.08,3.5 -10.31,6.74 -3.24,3.25 -5.22,6.5 -6.71,10.34 -1.44,3.71 -2.41,7.95 -2.68,14.16 -0.27,6.22 -0.33,8.2 -0.3,24.03 0.03,15.83 0.1,17.82 0.4,24.04 0.3,6.2 1.29,10.44 2.74,14.14 1.5,3.83 3.5,7.08 6.74,10.31 3.25,3.23 6.5,5.22 10.34,6.7 3.71,1.43 7.95,2.41 14.15,2.68 6.22,0.27 8.2,0.33 24.03,0.3 15.84,-0.03 17.82,-0.1 24.04,-0.39 6.2,-0.3 10.44,-1.29 14.14,-2.74 3.83,-1.5 7.08,-3.5 10.31,-6.74 3.23,-3.25 5.22,-6.5 6.7,-10.34 1.44,-3.71 2.41,-7.95 2.68,-14.15 0.27,-6.22 0.34,-8.21 0.31,-24.04 -0.03,-15.83 -0.1,-17.82 -0.4,-24.03 -0.29,-6.21 -1.29,-10.44 -2.74,-14.15 -1.5,-3.83 -3.5,-7.08 -6.74,-10.31 -3.25,-3.23 -6.5,-5.22 -10.34,-6.7 -3.71,-1.44 -7.95,-2.41 -14.15,-2.68 -6.22,-0.28 -8.2,-0.34 -24.04,-0.31 -15.83,0.03 -17.82,0.1 -24.03,0.4z"/>
 </g>
</svg>
