<?xml version="1.0" encoding="UTF-8"?>
<!DOCTYPE svg PUBLIC "-//W3C//DTD SVG 1.1//EN" "http://www.w3.org/Graphics/SVG/1.1/DTD/svg11.dtd">
<!-- Creator: CorelDRAW -->
<svg xmlns="http://www.w3.org/2000/svg" xml:space="preserve" width="0.702224in" height="0.702224in" version="1.1" style="shape-rendering:geometricPrecision; text-rendering:geometricPrecision; image-rendering:optimizeQuality; fill-rule:evenodd; clip-rule:evenodd"
viewBox="0 0 87.53 87.53"
 xmlns:xlink="http://www.w3.org/1999/xlink"
 xmlns:xodm="http://www.corel.com/coreldraw/odm/2003">
 <defs>
  <style type="text/css">
   <![CDATA[
    .fil0 {fill:#B7B7B7}
   ]]>
  </style>
 </defs>
 <g id="Layer_x0020_1">
  <metadata id="CorelCorpID_0Corel-Layer"/>
  <g id="_2099648854896">
   <polygon class="fil0" points="19.22,87.53 19.22,30.6 2.13,30.6 2.13,87.53 "/>
   <path class="fil0" d="M10.67 21.35c5.9,0 10.67,-4.78 10.67,-10.67 0,-5.9 -4.78,-10.67 -10.67,-10.67 -5.9,0 -10.67,4.78 -10.67,10.67 0,5.9 4.78,10.67 10.67,10.67z"/>
   <path class="fil0" d="M30.6 30.6l0 56.93 17.08 0 0 -27.34c0,-9.54 4.09,-15.36 12.68,-15.36 7.07,0 10.09,6.64 10.09,14.22l0 28.48 17.08 0 0 -31.6c0,-16.91 -4.8,-26.05 -22,-26.05 -8.96,0 -16.21,4.49 -18.66,8.91l-0.18 0 0 -8.2 -16.1 0z"/>
  </g>
 </g>
</svg>
