<?xml version="1.0" encoding="UTF-8"?>
<!DOCTYPE svg PUBLIC "-//W3C//DTD SVG 1.1//EN" "http://www.w3.org/Graphics/SVG/1.1/DTD/svg11.dtd">
<!-- Creator: CorelDRAW -->
<svg xmlns="http://www.w3.org/2000/svg" xml:space="preserve" width="5.36755in" height="1.2192in" version="1.1" style="shape-rendering:geometricPrecision; text-rendering:geometricPrecision; image-rendering:optimizeQuality; fill-rule:evenodd; clip-rule:evenodd"
viewBox="0 0 5243.06 1190.92"
 xmlns:xlink="http://www.w3.org/1999/xlink"
 xmlns:xodm="http://www.corel.com/coreldraw/odm/2003">
 <defs>
  <style type="text/css">
   <![CDATA[
    .fil6 {fill:#0D0D0D;fill-rule:nonzero}
    .fil0 {fill:#1A1A1A;fill-rule:nonzero}
    .fil1 {fill:#2A2A2A;fill-rule:nonzero}
    .fil7 {fill:#373435;fill-rule:nonzero}
    .fil8 {fill:#606062;fill-rule:nonzero}
    .fil2 {fill:#F5C518;fill-rule:nonzero}
    .fil5 {fill:#F5C518;fill-rule:nonzero;fill-opacity:0.301961}
    .fil4 {fill:#F5C518;fill-rule:nonzero;fill-opacity:0.501961}
    .fil3 {fill:#F5C518;fill-rule:nonzero;fill-opacity:0.800000}
   ]]>
  </style>
 </defs>
 <g id="Layer_x0020_1">
  <metadata id="CorelCorpID_0Corel-Layer"/>
  <g id="_2099889069568">
   <g>
    <path class="fil0" d="M260.85 4.98l669.22 0c141.26,0 255.88,114.61 255.88,255.88l0 669.22c0,141.28 -114.61,255.88 -255.88,255.88l-669.22 0c-141.31,0 -255.88,-114.61 -255.88,-255.88l0 -669.22c0,-141.28 114.58,-255.88 255.88,-255.88z"/>
    <path id="_1" class="fil1" d="M930.06 9.93l-669.22 0 0 -9.86 669.22 0 0 0 0 9.86zm260.8 250.94l-9.86 0 0 0 -0.32 -12.93 -0.97 -12.73 -1.61 -12.56 -2.2 -12.36 -2.79 -12.12 -3.39 -11.92 -3.96 -11.67 -4.5 -11.39 -5.02 -11.1 -5.54 -10.83 -6.03 -10.51 -6.53 -10.18 -7 -9.84 -7.44 -9.5 -7.88 -9.1 -8.31 -8.7 -8.73 -8.33 -9.1 -7.89 -9.5 -7.47 -9.84 -7 -10.18 -6.53 -10.51 -6.06 -10.8 -5.54 -11.1 -5.01 -11.4 -4.5 -11.67 -3.96 -11.89 -3.39 -12.14 -2.79 -12.36 -2.2 -12.56 -1.61 -12.73 -0.97 -12.93 -0.32 0 -9.86 13.4 0.35 13.25 1.01 13.03 1.66 12.86 2.3 12.64 2.92 12.36 3.51 12.11 4.11 11.84 4.68 11.55 5.22 11.24 5.76 10.9 6.28 10.58 6.78 10.23 7.27 9.84 7.75 9.46 8.21 9.05 8.65 8.63 9.05 8.21 9.46 7.75 9.86 7.27 10.21 6.8 10.58 6.28 10.93 5.76 11.24 5.21 11.55 4.68 11.84 4.11 12.12 3.51 12.39 2.92 12.61 2.3 12.86 1.65 13.05 1.02 13.25 0.35 13.41 0 0 -0.03 0zm-9.86 669.22l0 -669.22 9.86 0 0 669.22 0 0 -9.86 0zm-250.94 260.81l0 -9.86 0 0 12.93 -0.32 12.73 -0.97 12.56 -1.61 12.36 -2.2 12.14 -2.8 11.89 -3.39 11.67 -3.96 11.4 -4.5 11.1 -5.01 10.8 -5.54 10.51 -6.06 10.18 -6.53 9.84 -7 9.5 -7.47 9.1 -7.89 8.73 -8.33 8.31 -8.7 7.88 -9.1 7.44 -9.5 7 -9.84 6.53 -10.18 6.03 -10.51 5.54 -10.83 5.02 -11.11 4.5 -11.39 3.96 -11.67 3.39 -11.92 2.79 -12.12 2.2 -12.36 1.61 -12.56 0.97 -12.73 0.32 -12.93 9.86 0 -0.35 13.41 -1.01 13.25 -1.66 13.05 -2.3 12.86 -2.92 12.61 -3.51 12.39 -4.11 12.12 -4.68 11.84 -5.22 11.55 -5.76 11.24 -6.28 10.93 -6.8 10.58 -7.27 10.21 -7.75 9.86 -8.21 9.46 -8.63 9.05 -9.05 8.65 -9.46 8.21 -9.84 7.75 -10.23 7.27 -10.58 6.78 -10.91 6.28 -11.24 5.76 -11.55 5.21 -11.84 4.68 -12.12 4.11 -12.36 3.51 -12.64 2.92 -12.86 2.3 -13.03 1.66 -13.25 1.02 -13.41 0.35 0 0 0.03 0zm-669.22 -9.88l669.22 0 0 9.86 -669.22 0 0 0 0 -9.86zm-260.81 -250.93l9.86 0 0 0 0.32 12.93 0.97 12.73 1.58 12.56 2.2 12.36 2.79 12.12 3.39 11.92 3.96 11.67 4.48 11.4 5.05 11.1 5.54 10.83 6.03 10.51 6.53 10.19 7 9.81 7.47 9.5 7.88 9.1 8.31 8.7 8.73 8.33 9.1 7.88 9.5 7.47 9.84 7 10.18 6.53 10.51 6.06 10.8 5.54 11.12 5.02 11.4 4.5 11.67 3.96 11.92 3.39 12.14 2.79 12.36 2.2 12.56 1.61 12.73 0.97 12.93 0.32 0 9.86 -13.41 -0.35 -13.25 -1.01 -13.03 -1.66 -12.86 -2.3 -12.64 -2.92 -12.39 -3.51 -12.11 -4.11 -11.84 -4.68 -11.55 -5.21 -11.24 -5.76 -10.9 -6.28 -10.58 -6.78 -10.23 -7.27 -9.84 -7.74 -9.46 -8.21 -9.05 -8.65 -8.63 -9.05 -8.21 -9.47 -7.75 -9.86 -7.27 -10.21 -6.78 -10.58 -6.28 -10.93 -5.76 -11.24 -5.21 -11.55 -4.68 -11.84 -4.11 -12.11 -3.51 -12.39 -2.92 -12.61 -2.3 -12.86 -1.65 -13.05 -1.02 -13.23 -0.35 -13.4 0 0 -0.02 0zm9.86 -669.22l0 669.22 -9.86 0 0 -669.22 0 0 9.86 0zm250.94 -260.81l0 9.86 0 0 -12.93 0.32 -12.73 0.97 -12.56 1.61 -12.36 2.2 -12.14 2.79 -11.92 3.39 -11.67 3.95 -11.4 4.5 -11.12 5.01 -10.8 5.54 -10.51 6.06 -10.19 6.53 -9.84 7 -9.5 7.47 -9.1 7.88 -8.73 8.33 -8.31 8.7 -7.88 9.1 -7.47 9.5 -7 9.81 -6.53 10.19 -6.03 10.51 -5.53 10.83 -5.05 11.1 -4.48 11.4 -3.96 11.67 -3.39 11.92 -2.79 12.11 -2.2 12.36 -1.58 12.56 -0.97 12.73 -0.32 12.93 -9.86 0 0.35 -13.4 1.01 -13.23 1.66 -13.05 2.3 -12.86 2.92 -12.61 3.51 -12.39 4.11 -12.12 4.68 -11.84 5.22 -11.55 5.76 -11.24 6.28 -10.93 6.78 -10.58 7.27 -10.21 7.75 -9.86 8.21 -9.47 8.63 -9.05 9.05 -8.65 9.46 -8.21 9.84 -7.75 10.23 -7.27 10.58 -6.78 10.9 -6.28 11.25 -5.76 11.55 -5.21 11.84 -4.68 12.12 -4.11 12.39 -3.51 12.64 -2.92 12.85 -2.3 13.04 -1.65 13.25 -1.02 13.4 -0.35 0 0 0.02 0z"/>
    <path class="fil2" d="M255.9 221.5l679.09 0c29.89,0 54.12,24.25 54.12,54.13l0 0c0,29.89 -24.25,54.12 -54.12,54.12l-679.09 0c-29.9,0 -54.1,-24.25 -54.1,-54.12l0 0c0,-29.9 24.2,-54.13 54.13,-54.13l-0.05 0 0.02 0z"/>
    <path class="fil3" d="M250.97 418.32l688.9 0c27.2,0 49.23,22.06 49.23,49.23l0 0c0,27.15 -22.03,49.21 -49.23,49.21l-688.9 0c-27.15,0 -49.18,-22.06 -49.18,-49.21l0 0c0,-27.17 22.03,-49.23 49.18,-49.23z"/>
    <path class="fil4" d="M246.06 605.34l462.54 0c24.48,0 44.31,19.81 44.31,44.28l0 0c0,24.43 -19.83,44.28 -44.28,44.28l-462.56 0c-24.43,0 -44.28,-19.83 -44.28,-44.28l0 0c0,-24.48 19.83,-44.28 44.28,-44.28l0 0z"/>
    <path class="fil5" d="M246.06 782.48l305.06 0c24.48,0 44.31,19.81 44.31,44.28l0 0c0,24.43 -19.83,44.28 -44.28,44.28l-305.12 0c-24.43,0 -44.28,-19.83 -44.28,-44.28l0 0c0,-24.48 19.83,-44.28 44.28,-44.28l0 0 0.03 0z"/>
    <circle class="fil2" cx="890.67" cy="871.02" r="177.13"/>
    <path class="fil6" d="M798.08 889.81c-10.38,-10.39 -10.36,-27.23 0,-37.58 10.38,-10.39 27.22,-10.36 37.58,0l-37.61 37.58 0.03 0zm49.17 49.22l-49.17 -49.23 37.61 -37.58 49.17 49.23 0 37.58 -37.61 0zm37.61 -37.58c10.38,10.38 10.36,27.22 0,37.58 -10.38,10.38 -27.22,10.36 -37.58,0l37.61 -37.58 -0.03 0zm88.59 -51.01l-88.59 88.59 -37.61 -37.61 88.59 -88.59 37.61 37.61zm-37.61 -37.61c10.38,-10.38 27.22,-10.38 37.61,0 10.38,10.38 10.38,27.22 0,37.61l-37.61 -37.61z"/>
   </g>
   <g>
    <g>
     <path id="_3" class="fil7" d="M2692.35 596.12c-27.69,0 -52.12,-4.94 -73.31,-14.86 -21.19,-9.91 -37.78,-24.11 -49.74,-42.55 -11.96,-18.47 -17.93,-40.68 -17.93,-66.66l0 -14.34 66.66 0 0 14.34c0,21.54 6.67,37.68 20,48.47 13.33,10.75 31.45,16.15 54.34,16.15 23.24,0 40.6,-4.6 52.04,-13.85 11.44,-9.22 17.18,-21.01 17.18,-35.38 0,-9.91 -2.82,-17.95 -8.46,-24.11 -5.64,-6.15 -13.85,-11.2 -24.6,-15.14 -10.75,-3.93 -23.84,-7.59 -39.22,-11.03l-11.79 -2.58c-24.6,-5.46 -45.72,-12.39 -63.32,-20.77 -17.61,-8.36 -31.1,-19.39 -40.51,-33.06 -9.4,-13.67 -14.09,-31.45 -14.09,-53.33 0,-21.89 5.21,-40.6 15.63,-56.15 10.43,-15.55 25.12,-27.52 44.11,-35.88 18.96,-8.38 41.26,-12.56 66.91,-12.56 25.64,0 48.46,4.35 68.44,13.08 20,8.73 35.73,21.71 47.18,38.97 11.44,17.26 17.16,38.9 17.16,64.85l0 15.38 -66.66 0 0 -15.38c0,-13.67 -2.64,-24.7 -7.96,-33.05 -5.29,-8.38 -12.9,-14.54 -22.82,-18.47 -9.91,-3.93 -21.71,-5.91 -35.38,-5.91 -20.49,0 -35.63,3.83 -45.37,11.52 -9.74,7.69 -14.62,18.19 -14.62,31.55 0,8.88 2.3,16.39 6.92,22.55 4.62,6.15 11.55,11.28 20.77,15.38 9.22,4.11 21.02,7.69 35.38,10.75l11.79 2.58c25.64,5.46 47.94,12.48 66.9,21.01 18.96,8.56 33.75,19.83 44.36,33.85 10.61,14.02 15.9,31.95 15.9,53.82 0,21.89 -5.56,41.12 -16.67,57.69 -11.1,16.59 -26.82,29.57 -47.18,38.97 -20.36,9.4 -44.36,14.09 -72.05,14.09l-0.01 0.04z"/>
     <path id="_4" class="fil7" d="M3056.38 596.12c-27.69,0 -52.12,-4.94 -73.31,-14.86 -21.19,-9.91 -37.78,-24.11 -49.74,-42.55 -11.96,-18.47 -17.93,-40.68 -17.93,-66.66l0 -14.34 66.66 0 0 14.34c0,21.54 6.67,37.68 20,48.47 13.33,10.75 31.45,16.15 54.34,16.15 23.24,0 40.6,-4.6 52.04,-13.85 11.44,-9.22 17.18,-21.01 17.18,-35.38 0,-9.91 -2.82,-17.95 -8.45,-24.11 -5.64,-6.15 -13.85,-11.2 -24.6,-15.14 -10.75,-3.93 -23.84,-7.59 -39.22,-11.03l-11.79 -2.58c-24.6,-5.46 -45.72,-12.39 -63.32,-20.77 -17.61,-8.36 -31.11,-19.39 -40.51,-33.06 -9.4,-13.67 -14.09,-31.45 -14.09,-53.33 0,-21.89 5.21,-40.6 15.63,-56.15 10.43,-15.55 25.12,-27.52 44.11,-35.88 18.96,-8.38 41.26,-12.56 66.91,-12.56 25.64,0 48.46,4.35 68.44,13.08 20,8.73 35.72,21.71 47.18,38.97 11.44,17.26 17.16,38.9 17.16,64.85l0 15.38 -66.66 0 0 -15.38c0,-13.67 -2.64,-24.7 -7.96,-33.05 -5.29,-8.38 -12.9,-14.54 -22.82,-18.47 -9.91,-3.93 -21.71,-5.91 -35.38,-5.91 -20.49,0 -35.63,3.83 -45.37,11.52 -9.74,7.69 -14.62,18.19 -14.62,31.55 0,8.88 2.3,16.39 6.92,22.55 4.62,6.15 11.55,11.28 20.77,15.38 9.22,4.11 21.01,7.69 35.38,10.75l11.79 2.58c25.64,5.46 47.94,12.48 66.9,21.01 18.96,8.56 33.75,19.83 44.36,33.85 10.61,14.02 15.9,31.95 15.9,53.82 0,21.89 -5.57,41.12 -16.67,57.69 -11.1,16.59 -26.83,29.57 -47.18,38.97 -20.35,9.4 -44.36,14.09 -72.05,14.09l-0.01 0.04z"/>
     <path id="_7" class="fil7" d="M4156.12 596.12c-45.12,0 -81,-12.39 -107.68,-37.16 -26.65,-24.77 -39.98,-60.23 -39.98,-106.4l0 -86.14c0,-46.14 13.33,-81.59 39.98,-106.4 26.66,-24.8 62.55,-37.19 107.68,-37.19 45.13,0 81,12.39 107.68,37.19 26.66,24.77 39.98,60.23 39.98,106.4l0 86.14c0,46.14 -13.33,81.6 -39.98,106.4 -26.65,24.77 -62.55,37.16 -107.68,37.16zm0 -60.5c25.29,0 44.96,-7.35 58.97,-22.06 14.02,-14.71 21.02,-34.37 21.02,-58.97l0 -90.25c0,-24.6 -7,-44.26 -21.02,-58.97 -14.02,-14.71 -33.68,-22.06 -58.97,-22.06 -24.95,0 -44.51,7.35 -58.7,22.06 -14.17,14.71 -21.29,34.34 -21.29,58.97l0 90.25c0,24.6 7.1,44.26 21.29,58.97 14.19,14.69 33.75,22.06 58.7,22.06z"/>
     <path class="fil7" d="M1490.07 588.95l0 -358.91 147.66 0c22.55,0 42.47,4.53 59.74,13.58 17.26,9.05 30.75,21.78 40.5,38.2 9.74,16.4 14.62,35.88 14.62,58.45l0 7.19c0,22.23 -5.05,41.61 -15.14,58.21 -10.09,16.56 -23.76,29.4 -41.01,38.45 -17.26,9.05 -36.84,13.6 -58.7,13.6l-79.99 0 0 131.25 -67.67 0 -0.01 -0.02zm67.67 -192.78l73.31 0c16.08,0 29.05,-4.45 38.97,-13.33 9.91,-8.88 14.86,-21.02 14.86,-36.4l0 -5.12c0,-15.38 -4.97,-27.52 -14.86,-36.4 -9.91,-8.88 -22.9,-13.33 -38.97,-13.33l-73.31 0 0 104.59 0 -0.02z"/>
     <path id="_1_0" class="fil7" d="M1853.07 588.95l0 -358.91 155.87 0c22.58,0 42.21,3.93 58.97,11.79 16.74,7.87 29.72,18.96 38.97,33.33 9.22,14.37 13.85,31.28 13.85,50.77l0 6.15c0,21.53 -5.12,38.97 -15.38,52.29 -10.26,13.33 -22.9,23.07 -37.95,29.22l0 9.22c13.67,0.69 24.28,5.39 31.8,14.1 7.51,8.73 11.28,20.25 11.28,34.62l0 117.42 -67.67 0 0 -107.68c0,-8.21 -2.13,-14.86 -6.41,-20 -4.28,-5.12 -11.35,-7.68 -21.29,-7.68l-94.33 0 0 135.37 -67.67 0 -0.03 -0.01zm67.67 -196.89l81 0c16.07,0 28.63,-4.35 37.68,-13.08 9.05,-8.73 13.6,-20.25 13.6,-34.62l0 -5.12c0,-14.34 -4.45,-25.89 -13.33,-34.62 -8.88,-8.73 -21.54,-13.08 -37.93,-13.08l-81 0 0 100.48 -0.03 0.04z"/>
     <polygon id="_2" class="fil7" points="2230.4,588.95 2230.4,230.04 2461.14,230.04 2461.14,291.55 2298.1,291.55 2298.1,377.18 2446.77,377.18 2446.77,438.72 2298.1,438.72 2298.1,527.41 2464.23,527.41 2464.23,588.95 "/>
     <polygon id="_5" class="fil7" points="3367.58,588.95 3367.58,291.55 3262.99,291.55 3262.99,230.04 3539.86,230.04 3539.86,291.55 3435.28,291.55 3435.28,588.95 "/>
     <path id="_6" class="fil7" d="M3639.31 588.95l0 -358.91 155.87 0c22.58,0 42.21,3.93 58.97,11.79 16.74,7.87 29.72,18.96 38.97,33.33 9.22,14.37 13.85,31.28 13.85,50.77l0 6.15c0,21.53 -5.12,38.97 -15.38,52.29 -10.26,13.33 -22.9,23.07 -37.95,29.22l0 9.22c13.67,0.69 24.28,5.39 31.8,14.1 7.51,8.73 11.28,20.25 11.28,34.62l0 117.42 -67.67 0 0 -107.68c0,-8.21 -2.13,-14.86 -6.41,-20 -4.28,-5.12 -11.35,-7.68 -21.29,-7.68l-94.33 0 0 135.37 -67.67 0 -0.03 -0.01zm67.67 -196.89l81 0c16.08,0 28.64,-4.35 37.68,-13.08 9.05,-8.73 13.6,-20.25 13.6,-34.62l0 -5.12c0,-14.34 -4.45,-25.89 -13.33,-34.62 -8.88,-8.73 -21.54,-13.08 -37.93,-13.08l-81 0 0 100.48 -0.03 0.04z"/>
     <path id="_8" class="fil7" d="M4416.58 588.95l0 -358.91 147.66 0c22.55,0 42.48,4.53 59.74,13.58 17.26,9.05 30.75,21.78 40.51,38.2 9.74,16.4 14.61,35.88 14.61,58.45l0 7.19c0,22.23 -5.05,41.61 -15.14,58.21 -10.09,16.56 -23.76,29.4 -41.01,38.45 -17.26,9.05 -36.84,13.6 -58.7,13.6l-79.99 0 0 131.25 -67.67 0 -0.01 -0.02zm67.68 -192.78l73.31 0c16.08,0 29.05,-4.45 38.97,-13.33 9.91,-8.88 14.86,-21.02 14.86,-36.4l0 -5.12c0,-15.38 -4.97,-27.52 -14.86,-36.4 -9.91,-8.88 -22.9,-13.33 -38.97,-13.33l-73.31 0 0 104.59 0 -0.02z"/>
     <polygon id="_9" class="fil7" points="4779.55,588.95 4779.55,230.04 4847.25,230.04 4847.25,588.95 "/>
     <path id="_10" class="fil7" d="M5104.62 596.12c-44.44,0 -79.64,-12.39 -105.63,-37.16 -25.98,-24.77 -38.97,-60.23 -38.97,-106.4l0 -86.14c0,-46.14 13.01,-81.59 38.97,-106.4 25.99,-24.8 61.2,-37.19 105.63,-37.19 44.08,0 78.18,12.04 102.29,36.15 24.11,24.11 36.15,57.16 36.15,99.22l0 3.07 -66.66 0 0 -5.12c0,-21.2 -5.91,-38.62 -17.68,-52.29 -11.79,-13.67 -29.82,-20.52 -54.1,-20.52 -23.93,0 -42.73,7.35 -56.4,22.06 -13.67,14.71 -20.52,34.69 -20.52,59.99l0 88.2c0,24.95 6.83,44.88 20.52,59.74 13.67,14.86 32.47,22.3 56.4,22.3 24.28,0 42.3,-6.92 54.1,-20.77 11.79,-13.85 17.68,-31.18 17.68,-52.04l0 -9.22 66.66 0 0 7.16c0,42.06 -12.04,75.11 -36.15,99.22 -24.11,24.08 -58.21,36.15 -102.29,36.15z"/>
    </g>
    <path class="fil8" d="M1600.76 968.09c-21.74,0 -40.92,-3.89 -57.56,-11.67 -16.64,-7.78 -29.65,-18.92 -39.05,-33.41 -9.39,-14.49 -14.09,-31.93 -14.09,-52.33l0 -11.27 52.33 0 0 11.27c0,16.91 5.23,29.58 15.7,38.04 10.46,8.45 24.69,12.68 42.67,12.68 18.25,0 31.87,-3.62 40.86,-10.87 8.99,-7.25 13.48,-16.51 13.48,-27.78 0,-7.78 -2.21,-14.09 -6.64,-18.92 -4.43,-4.83 -10.87,-8.79 -19.32,-11.88 -8.45,-3.08 -18.72,-5.97 -30.79,-8.65l-9.26 -2.02c-19.32,-4.29 -35.89,-9.73 -49.71,-16.3 -13.82,-6.57 -24.42,-15.23 -31.8,-25.96 -7.38,-10.73 -11.07,-24.69 -11.07,-41.86 0,-17.17 4.1,-31.87 12.28,-44.08 8.18,-12.21 19.72,-21.6 34.62,-28.18 14.89,-6.58 32.4,-9.86 52.53,-9.86 20.12,0 38.04,3.42 53.74,10.26 15.7,6.84 28.04,17.04 37.03,30.59 8.99,13.55 13.49,30.52 13.49,50.92l0 12.08 -52.33 0 0 -12.08c0,-10.73 -2.08,-19.39 -6.24,-25.96 -4.16,-6.57 -10.13,-11.4 -17.91,-14.49 -7.78,-3.08 -17.04,-4.63 -27.77,-4.63 -16.1,0 -27.98,3.02 -35.62,9.06 -7.65,6.04 -11.47,14.29 -11.47,24.76 0,6.98 1.81,12.88 5.43,17.71 3.62,4.83 9.06,8.86 16.3,12.08 7.25,3.22 16.5,6.04 27.77,8.45l9.26 2.02c20.13,4.29 37.64,9.79 52.53,16.5 14.89,6.71 26.5,15.56 34.82,26.57 8.32,11 12.48,25.09 12.48,42.27 0,17.17 -4.36,32.27 -13.08,45.28 -8.72,13.01 -21.07,23.21 -37.03,30.59 -15.97,7.38 -34.82,11.07 -56.55,11.07z"/>
    <path id="_1_0" class="fil8" d="M1911.38 968.09c-35.42,0 -63.6,-9.73 -84.53,-29.18 -20.93,-19.46 -31.4,-47.3 -31.4,-83.52l0 -67.63c0,-36.23 10.47,-64.07 31.4,-83.52 20.93,-19.46 49.11,-29.18 84.53,-29.18 35.42,0 63.6,9.73 84.53,29.18 20.93,19.46 31.4,47.3 31.4,83.52l0 67.63c0,36.23 -10.46,64.07 -31.4,83.52 -20.93,19.46 -49.11,29.18 -84.53,29.18zm0 -47.5c19.86,0 35.29,-5.77 46.29,-17.31 11,-11.54 16.5,-26.97 16.5,-46.29l0 -70.84c0,-19.32 -5.5,-34.75 -16.5,-46.29 -11,-11.54 -26.44,-17.31 -46.29,-17.31 -19.59,0 -34.95,5.77 -46.09,17.31 -11.14,11.54 -16.71,26.97 -16.71,46.29l0 70.84c0,19.32 5.57,34.75 16.71,46.29 11.14,11.54 26.5,17.31 46.09,17.31z"/>
    <polygon id="_2_1" class="fil8" points="2129.01,962.46 2129.01,680.69 2182.14,680.69 2182.14,914.16 2310.95,914.16 2310.95,962.46 "/>
    <path id="_3_2" class="fil8" d="M2502.82 968.09c-23.08,0 -42.87,-4.23 -59.37,-12.68 -16.5,-8.45 -29.12,-20.53 -37.84,-36.23 -8.72,-15.7 -13.08,-34.28 -13.08,-55.75l0 -182.75 53.13 0 0 184.36c0,17.17 4.9,30.73 14.69,40.66 9.79,9.93 23.95,14.89 42.47,14.89 18.52,0 32.67,-4.96 42.47,-14.89 9.79,-9.93 14.69,-23.48 14.69,-40.66l0 -184.36 53.14 0 0 182.75c0,21.47 -4.36,40.05 -13.08,55.75 -8.72,15.7 -21.34,27.77 -37.84,36.23 -16.51,8.45 -36.3,12.68 -59.37,12.68z"/>
    <polygon id="_4_3" class="fil8" points="2784.86,962.46 2784.86,728.99 2702.74,728.99 2702.74,680.69 2920.11,680.69 2920.11,728.99 2837.99,728.99 2837.99,962.46 "/>
    <polygon id="_5_4" class="fil8" points="3011.34,962.46 3011.34,680.69 3064.48,680.69 3064.48,962.46 "/>
    <path id="_6_5" class="fil8" d="M3282.11 968.09c-35.42,0 -63.6,-9.73 -84.53,-29.18 -20.93,-19.46 -31.4,-47.3 -31.4,-83.52l0 -67.63c0,-36.23 10.47,-64.07 31.4,-83.52 20.93,-19.46 49.11,-29.18 84.53,-29.18 35.42,0 63.6,9.73 84.53,29.18 20.93,19.46 31.4,47.3 31.4,83.52l0 67.63c0,36.23 -10.46,64.07 -31.4,83.52 -20.93,19.46 -49.11,29.18 -84.53,29.18zm0 -47.5c19.86,0 35.29,-5.77 46.29,-17.31 11,-11.54 16.5,-26.97 16.5,-46.29l0 -70.84c0,-19.32 -5.5,-34.75 -16.5,-46.29 -11,-11.54 -26.44,-17.31 -46.29,-17.31 -19.59,0 -34.95,5.77 -46.09,17.31 -11.14,11.54 -16.71,26.97 -16.71,46.29l0 70.84c0,19.32 5.57,34.75 16.71,46.29 11.14,11.54 26.5,17.31 46.09,17.31z"/>
    <polygon id="_7_6" class="fil8" points="3499.74,962.46 3499.74,680.69 3600.77,680.69 3656.73,926.23 3663.97,926.23 3663.97,680.69 3716.3,680.69 3716.3,962.46 3615.27,962.46 3559.31,716.91 3552.07,716.91 3552.07,962.46 "/>
    <path id="_8_7" class="fil8" d="M3922.26 968.09c-21.74,0 -40.92,-3.89 -57.56,-11.67 -16.64,-7.78 -29.65,-18.92 -39.05,-33.41 -9.39,-14.49 -14.09,-31.93 -14.09,-52.33l0 -11.27 52.33 0 0 11.27c0,16.91 5.23,29.58 15.7,38.04 10.46,8.45 24.69,12.68 42.67,12.68 18.25,0 31.87,-3.62 40.86,-10.87 8.99,-7.25 13.48,-16.51 13.48,-27.78 0,-7.78 -2.21,-14.09 -6.64,-18.92 -4.43,-4.83 -10.87,-8.79 -19.32,-11.88 -8.45,-3.08 -18.72,-5.97 -30.79,-8.65l-9.26 -2.02c-19.32,-4.29 -35.89,-9.73 -49.71,-16.3 -13.82,-6.57 -24.42,-15.23 -31.8,-25.96 -7.38,-10.73 -11.07,-24.69 -11.07,-41.86 0,-17.17 4.1,-31.87 12.28,-44.08 8.18,-12.21 19.72,-21.6 34.62,-28.18 14.89,-6.58 32.4,-9.86 52.53,-9.86 20.12,0 38.04,3.42 53.74,10.26 15.7,6.84 28.04,17.04 37.03,30.59 8.99,13.55 13.49,30.52 13.49,50.92l0 12.08 -52.33 0 0 -12.08c0,-10.73 -2.08,-19.39 -6.24,-25.96 -4.16,-6.57 -10.13,-11.4 -17.91,-14.49 -7.78,-3.08 -17.04,-4.63 -27.77,-4.63 -16.1,0 -27.98,3.02 -35.62,9.06 -7.65,6.04 -11.47,14.29 -11.47,24.76 0,6.98 1.81,12.88 5.43,17.71 3.62,4.83 9.06,8.86 16.3,12.08 7.25,3.22 16.5,6.04 27.77,8.45l9.26 2.02c20.13,4.29 37.64,9.79 52.53,16.5 14.89,6.71 26.5,15.56 34.82,26.57 8.32,11 12.48,25.09 12.48,42.27 0,17.17 -4.36,32.27 -13.08,45.28 -8.72,13.01 -21.07,23.21 -37.03,30.59 -15.97,7.38 -34.82,11.07 -56.55,11.07z"/>
   </g>
  </g>
 </g>
</svg>
