<?xml version="1.0" encoding="UTF-8"?>
<!DOCTYPE svg PUBLIC "-//W3C//DTD SVG 1.1//EN" "http://www.w3.org/Graphics/SVG/1.1/DTD/svg11.dtd">
<!-- Creator: CorelDRAW -->
<svg xmlns="http://www.w3.org/2000/svg" xml:space="preserve" width="2.23243in" height="0.49528in" version="1.1" style="shape-rendering:geometricPrecision; text-rendering:geometricPrecision; image-rendering:optimizeQuality; fill-rule:evenodd; clip-rule:evenodd"
viewBox="0 0 2170.84 481.62"
 xmlns:xlink="http://www.w3.org/1999/xlink"
 xmlns:xodm="http://www.corel.com/coreldraw/odm/2003">
 <defs>
  <style type="text/css">
   <![CDATA[
    .fil6 {fill:#0D0D0D;fill-rule:nonzero}
    .fil0 {fill:#1A1A1A;fill-rule:nonzero}
    .fil1 {fill:#2A2A2A;fill-rule:nonzero}
    .fil8 {fill:#373435;fill-rule:nonzero}
    .fil9 {fill:#606062;fill-rule:nonzero}
    .fil10 {fill:#9A7400;fill-rule:nonzero}
    .fil2 {fill:#F5C518;fill-rule:nonzero}
    .fil5 {fill:#F5C518;fill-rule:nonzero;fill-opacity:0.301961}
    .fil7 {fill:#9A7400;fill-rule:nonzero;fill-opacity:0.501961}
    .fil4 {fill:#F5C518;fill-rule:nonzero;fill-opacity:0.501961}
    .fil3 {fill:#F5C518;fill-rule:nonzero;fill-opacity:0.800000}
   ]]>
  </style>
 </defs>
 <g id="Layer_x0020_1">
  <metadata id="CorelCorpID_0Corel-Layer"/>
  <g id="_2303515903856">
   <g>
    <path class="fil0" d="M105.48 1.99l270.66 0c57.13,0 103.49,46.35 103.49,103.49l0 270.66c0,57.14 -46.35,103.49 -103.49,103.49l-270.66 0c-57.15,0 -103.49,-46.35 -103.49,-103.49l0 -270.66c0,-57.14 46.34,-103.49 103.49,-103.49z"/>
    <path id="_1" class="fil1" d="M376.14 3.99l-270.66 0 0 -3.99 270.66 0 0 0 0 3.99zm105.48 101.49l-3.99 0 0 0 -0.13 -5.23 -0.39 -5.15 -0.65 -5.08 -0.89 -5 -1.13 -4.9 -1.37 -4.82 -1.6 -4.72 -1.82 -4.61 -2.03 -4.49 -2.24 -4.38 -2.44 -4.25 -2.64 -4.12 -2.83 -3.98 -3.01 -3.84 -3.19 -3.68 -3.36 -3.52 -3.53 -3.37 -3.68 -3.19 -3.84 -3.02 -3.98 -2.83 -4.12 -2.64 -4.25 -2.45 -4.37 -2.24 -4.49 -2.03 -4.61 -1.82 -4.72 -1.6 -4.81 -1.37 -4.91 -1.13 -5 -0.89 -5.08 -0.65 -5.15 -0.39 -5.23 -0.13 0 -3.99 5.42 0.14 5.36 0.41 5.27 0.67 5.2 0.93 5.11 1.18 5 1.42 4.9 1.66 4.79 1.89 4.67 2.11 4.55 2.33 4.41 2.54 4.28 2.74 4.14 2.94 3.98 3.13 3.83 3.32 3.66 3.5 3.49 3.66 3.32 3.83 3.13 3.99 2.94 4.13 2.75 4.28 2.54 4.42 2.33 4.55 2.11 4.67 1.89 4.79 1.66 4.9 1.42 5.01 1.18 5.1 0.93 5.2 0.67 5.28 0.41 5.36 0.14 5.42 0 0zm-3.99 270.66l0 -270.66 3.99 0 0 270.66 0 0 -3.99 0zm-101.49 105.48l0 -3.99 0 0 5.23 -0.13 5.15 -0.39 5.08 -0.65 5 -0.89 4.91 -1.13 4.81 -1.37 4.72 -1.6 4.61 -1.82 4.49 -2.03 4.37 -2.24 4.25 -2.45 4.12 -2.64 3.98 -2.83 3.84 -3.02 3.68 -3.19 3.53 -3.37 3.36 -3.52 3.19 -3.68 3.01 -3.84 2.83 -3.98 2.64 -4.12 2.44 -4.25 2.24 -4.38 2.03 -4.49 1.82 -4.61 1.6 -4.72 1.37 -4.82 1.13 -4.9 0.89 -5 0.65 -5.08 0.39 -5.15 0.13 -5.23 3.99 0 -0.14 5.42 -0.41 5.36 -0.67 5.28 -0.93 5.2 -1.18 5.1 -1.42 5.01 -1.66 4.9 -1.89 4.79 -2.11 4.67 -2.33 4.55 -2.54 4.42 -2.75 4.28 -2.94 4.13 -3.13 3.99 -3.32 3.83 -3.49 3.66 -3.66 3.5 -3.83 3.32 -3.98 3.13 -4.14 2.94 -4.28 2.74 -4.41 2.54 -4.55 2.33 -4.67 2.11 -4.79 1.89 -4.9 1.66 -5 1.42 -5.11 1.18 -5.2 0.93 -5.27 0.67 -5.36 0.41 -5.42 0.14 0 0zm-270.66 -3.99l270.66 0 0 3.99 -270.66 0 0 0 0 -3.99zm-105.48 -101.49l3.99 0 0 0 0.13 5.23 0.39 5.15 0.64 5.08 0.89 5 1.13 4.9 1.37 4.82 1.6 4.72 1.81 4.61 2.04 4.49 2.24 4.38 2.44 4.25 2.64 4.12 2.83 3.97 3.02 3.84 3.19 3.68 3.36 3.52 3.53 3.37 3.68 3.19 3.84 3.02 3.98 2.83 4.12 2.64 4.25 2.45 4.37 2.24 4.5 2.03 4.61 1.82 4.72 1.6 4.82 1.37 4.91 1.13 5 0.89 5.08 0.65 5.15 0.39 5.23 0.13 0 3.99 -5.42 -0.14 -5.36 -0.41 -5.27 -0.67 -5.2 -0.93 -5.11 -1.18 -5.01 -1.42 -4.9 -1.66 -4.79 -1.89 -4.67 -2.11 -4.55 -2.33 -4.41 -2.54 -4.28 -2.74 -4.14 -2.94 -3.98 -3.13 -3.83 -3.32 -3.66 -3.5 -3.49 -3.66 -3.32 -3.83 -3.13 -3.99 -2.94 -4.13 -2.74 -4.28 -2.54 -4.42 -2.33 -4.55 -2.11 -4.67 -1.89 -4.79 -1.66 -4.9 -1.42 -5.01 -1.18 -5.1 -0.93 -5.2 -0.67 -5.28 -0.41 -5.35 -0.14 -5.42 0 0zm3.99 -270.66l0 270.66 -3.99 0 0 -270.66 0 0 3.99 0zm101.49 -105.48l0 3.99 0 0 -5.23 0.13 -5.15 0.39 -5.08 0.65 -5 0.89 -4.91 1.13 -4.82 1.37 -4.72 1.6 -4.61 1.82 -4.5 2.03 -4.37 2.24 -4.25 2.45 -4.12 2.64 -3.98 2.83 -3.84 3.02 -3.68 3.19 -3.53 3.37 -3.36 3.52 -3.19 3.68 -3.02 3.84 -2.83 3.97 -2.64 4.12 -2.44 4.25 -2.24 4.38 -2.04 4.49 -1.81 4.61 -1.6 4.72 -1.37 4.82 -1.13 4.9 -0.89 5 -0.64 5.08 -0.39 5.15 -0.13 5.23 -3.99 0 0.14 -5.42 0.41 -5.35 0.67 -5.28 0.93 -5.2 1.18 -5.1 1.42 -5.01 1.66 -4.9 1.89 -4.79 2.11 -4.67 2.33 -4.55 2.54 -4.42 2.74 -4.28 2.94 -4.13 3.13 -3.99 3.32 -3.83 3.49 -3.66 3.66 -3.5 3.83 -3.32 3.98 -3.13 4.14 -2.94 4.28 -2.74 4.41 -2.54 4.55 -2.33 4.67 -2.11 4.79 -1.89 4.9 -1.66 5.01 -1.42 5.11 -1.18 5.2 -0.93 5.27 -0.67 5.36 -0.41 5.42 -0.14 0 0z"/>
   </g>
   <path class="fil2" d="M103.48 89.56l274.65 0c12.09,0 21.89,9.81 21.89,21.89l0 0c0,12.09 -9.81,21.89 -21.89,21.89l-274.65 0c-12.09,0 -21.88,-9.81 -21.88,-21.89l0 0c0,-12.09 9.79,-21.89 21.89,-21.89l-0.02 0z"/>
   <path class="fil3" d="M101.49 169.16l278.62 0c11,0 19.91,8.92 19.91,19.91l0 0c0,10.98 -8.91,19.9 -19.91,19.9l-278.62 0c-10.98,0 -19.89,-8.92 -19.89,-19.9l0 0c0,-10.99 8.91,-19.91 19.89,-19.91z"/>
   <path class="fil4" d="M99.5 244.8l187.07 0c9.9,0 17.92,8.01 17.92,17.91l0 0c0,9.88 -8.02,17.91 -17.91,17.91l-187.08 0c-9.88,0 -17.91,-8.02 -17.91,-17.91l0 0c0,-9.9 8.02,-17.91 17.91,-17.91l0 0z"/>
   <path class="fil5" d="M99.5 316.44l123.38 0c9.9,0 17.92,8.01 17.92,17.91l0 0c0,9.88 -8.02,17.91 -17.91,17.91l-123.4 0c-9.88,0 -17.91,-8.02 -17.91,-17.91l0 0c0,-9.9 8.02,-17.91 17.91,-17.91l0 0z"/>
   <circle class="fil2" cx="360.21" cy="352.25" r="71.64"/>
   <g>
    <path class="fil6" d="M322.76 359.85c-4.2,-4.2 -4.19,-11.01 0,-15.2 4.2,-4.2 11.01,-4.19 15.2,0l-15.21 15.2zm19.89 19.91l-19.89 -19.91 15.21 -15.2 19.89 19.91 0 15.2 -15.21 -0zm15.21 -15.2c4.2,4.2 4.19,11.01 -0,15.2 -4.2,4.2 -11.01,4.19 -15.2,-0l15.21 -15.2zm35.83 -20.63l-35.83 35.83 -15.21 -15.21 35.83 -35.83 15.21 15.21zm-15.21 -15.21c4.2,-4.2 11.01,-4.2 15.21,0 4.2,4.2 4.2,11.01 0,15.21l-15.21 -15.21z"/>
   </g>
  </g>
  <g>
   <polygon class="fil7" points="2170.84,372.21 602.63,372.21 602.63,366.24 2170.84,366.24 "/>
  </g>
  <path class="fil8" d="M602.63 172.66l0 -145.16 59.72 0c9.12,0 17.18,1.83 24.16,5.49 6.98,3.66 12.44,8.81 16.38,15.45 3.94,6.63 5.91,14.51 5.91,23.64l0 2.91c0,8.99 -2.04,16.83 -6.12,23.54 -4.08,6.7 -9.61,11.89 -16.59,15.55 -6.98,3.66 -14.9,5.5 -23.74,5.5l-32.35 0 0 53.08 -27.37 0zm27.37 -77.97l29.65 0c6.5,0 11.75,-1.8 15.76,-5.39 4.01,-3.59 6.01,-8.5 6.01,-14.72l0 -2.07c0,-6.22 -2.01,-11.13 -6.01,-14.72 -4.01,-3.59 -9.26,-5.39 -15.76,-5.39l-29.65 0 0 42.3z"/>
  <path id="_1_0" class="fil8" d="M749.44 172.66l0 -145.16 63.04 0c9.13,0 17.07,1.59 23.85,4.77 6.77,3.18 12.02,7.67 15.76,13.48 3.73,5.81 5.6,12.65 5.6,20.53l0 2.49c0,8.71 -2.07,15.76 -6.22,21.15 -4.15,5.39 -9.26,9.33 -15.35,11.82l0 3.73c5.53,0.28 9.82,2.18 12.86,5.7 3.04,3.53 4.56,8.19 4.56,14l0 47.49 -27.37 0 0 -43.55c0,-3.32 -0.86,-6.01 -2.59,-8.09 -1.73,-2.07 -4.59,-3.11 -8.61,-3.11l-38.15 0 0 54.75 -27.37 0zm27.37 -79.63l32.76 0c6.5,0 11.58,-1.76 15.24,-5.29 3.66,-3.53 5.5,-8.19 5.5,-14l0 -2.07c0,-5.8 -1.8,-10.47 -5.39,-14 -3.59,-3.53 -8.71,-5.29 -15.34,-5.29l-32.76 0 0 40.64z"/>
  <polygon id="_2" class="fil8" points="902.05,172.66 902.05,27.5 995.37,27.5 995.37,52.38 929.43,52.38 929.43,87.01 989.56,87.01 989.56,111.9 929.43,111.9 929.43,147.77 996.62,147.77 996.62,172.66 "/>
  <path id="_3" class="fil8" d="M1088.88 175.56c-11.2,0 -21.08,-2 -29.65,-6.01 -8.57,-4.01 -15.28,-9.75 -20.12,-17.21 -4.84,-7.47 -7.25,-16.45 -7.25,-26.96l0 -5.8 26.96 0 0 5.8c0,8.71 2.7,15.24 8.09,19.6 5.39,4.35 12.72,6.53 21.98,6.53 9.4,0 16.42,-1.86 21.05,-5.6 4.63,-3.73 6.95,-8.5 6.95,-14.31 0,-4.01 -1.14,-7.26 -3.42,-9.75 -2.28,-2.49 -5.6,-4.53 -9.95,-6.12 -4.35,-1.59 -9.64,-3.07 -15.86,-4.46l-4.77 -1.04c-9.95,-2.21 -18.49,-5.01 -25.61,-8.4 -7.12,-3.38 -12.58,-7.84 -16.38,-13.37 -3.8,-5.53 -5.7,-12.72 -5.7,-21.57 0,-8.85 2.11,-16.42 6.32,-22.71 4.22,-6.29 10.16,-11.13 17.84,-14.51 7.67,-3.39 16.69,-5.08 27.06,-5.08 10.37,0 19.6,1.76 27.68,5.29 8.09,3.53 14.45,8.78 19.08,15.76 4.63,6.98 6.94,15.73 6.94,26.23l0 6.22 -26.96 0 0 -6.22c0,-5.53 -1.07,-9.99 -3.22,-13.37 -2.14,-3.39 -5.22,-5.88 -9.23,-7.47 -4.01,-1.59 -8.78,-2.39 -14.31,-2.39 -8.29,0 -14.41,1.55 -18.35,4.66 -3.94,3.11 -5.91,7.36 -5.91,12.76 0,3.59 0.93,6.63 2.8,9.12 1.87,2.49 4.67,4.56 8.4,6.22 3.73,1.66 8.5,3.11 14.31,4.35l4.77 1.04c10.37,2.21 19.39,5.05 27.06,8.5 7.67,3.46 13.65,8.02 17.94,13.69 4.29,5.67 6.43,12.92 6.43,21.77 0,8.85 -2.25,16.63 -6.74,23.33 -4.49,6.71 -10.85,11.96 -19.08,15.76 -8.23,3.8 -17.94,5.7 -29.14,5.7z"/>
  <path id="_4" class="fil8" d="M1236.11 175.56c-11.2,0 -21.08,-2 -29.65,-6.01 -8.57,-4.01 -15.28,-9.75 -20.12,-17.21 -4.84,-7.47 -7.25,-16.45 -7.25,-26.96l0 -5.8 26.96 0 0 5.8c0,8.71 2.7,15.24 8.09,19.6 5.39,4.35 12.72,6.53 21.98,6.53 9.4,0 16.42,-1.86 21.05,-5.6 4.63,-3.73 6.95,-8.5 6.95,-14.31 0,-4.01 -1.14,-7.26 -3.42,-9.75 -2.28,-2.49 -5.6,-4.53 -9.95,-6.12 -4.35,-1.59 -9.64,-3.07 -15.86,-4.46l-4.77 -1.04c-9.95,-2.21 -18.49,-5.01 -25.61,-8.4 -7.12,-3.38 -12.58,-7.84 -16.38,-13.37 -3.8,-5.53 -5.7,-12.72 -5.7,-21.57 0,-8.85 2.11,-16.42 6.32,-22.71 4.22,-6.29 10.16,-11.13 17.84,-14.51 7.67,-3.39 16.69,-5.08 27.06,-5.08 10.37,0 19.6,1.76 27.68,5.29 8.09,3.53 14.45,8.78 19.08,15.76 4.63,6.98 6.94,15.73 6.94,26.23l0 6.22 -26.96 0 0 -6.22c0,-5.53 -1.07,-9.99 -3.22,-13.37 -2.14,-3.39 -5.22,-5.88 -9.23,-7.47 -4.01,-1.59 -8.78,-2.39 -14.31,-2.39 -8.29,0 -14.41,1.55 -18.35,4.66 -3.94,3.11 -5.91,7.36 -5.91,12.76 0,3.59 0.93,6.63 2.8,9.12 1.87,2.49 4.67,4.56 8.4,6.22 3.73,1.66 8.5,3.11 14.31,4.35l4.77 1.04c10.37,2.21 19.39,5.05 27.06,8.5 7.67,3.46 13.65,8.02 17.94,13.69 4.29,5.67 6.43,12.92 6.43,21.77 0,8.85 -2.25,16.63 -6.74,23.33 -4.49,6.71 -10.85,11.96 -19.08,15.76 -8.23,3.8 -17.94,5.7 -29.14,5.7z"/>
  <polygon id="_5" class="fil8" points="1361.97,172.66 1361.97,52.38 1319.67,52.38 1319.67,27.5 1431.65,27.5 1431.65,52.38 1389.35,52.38 1389.35,172.66 "/>
  <path id="_6" class="fil8" d="M1471.87 172.66l0 -145.16 63.04 0c9.13,0 17.07,1.59 23.85,4.77 6.77,3.18 12.02,7.67 15.76,13.48 3.73,5.81 5.6,12.65 5.6,20.53l0 2.49c0,8.71 -2.07,15.76 -6.22,21.15 -4.15,5.39 -9.26,9.33 -15.35,11.82l0 3.73c5.53,0.28 9.82,2.18 12.86,5.7 3.04,3.53 4.56,8.19 4.56,14l0 47.49 -27.37 0 0 -43.55c0,-3.32 -0.86,-6.01 -2.59,-8.09 -1.73,-2.07 -4.59,-3.11 -8.61,-3.11l-38.15 0 0 54.75 -27.37 0zm27.37 -79.63l32.76 0c6.5,0 11.58,-1.76 15.24,-5.29 3.66,-3.53 5.5,-8.19 5.5,-14l0 -2.07c0,-5.8 -1.8,-10.47 -5.39,-14 -3.59,-3.53 -8.71,-5.29 -15.34,-5.29l-32.76 0 0 40.64z"/>
  <path id="_7" class="fil8" d="M1680.89 175.56c-18.25,0 -32.76,-5.01 -43.55,-15.03 -10.78,-10.02 -16.17,-24.36 -16.17,-43.03l0 -34.84c0,-18.66 5.39,-33 16.17,-43.03 10.78,-10.03 25.3,-15.04 43.55,-15.04 18.25,0 32.76,5.01 43.55,15.04 10.78,10.02 16.17,24.36 16.17,43.03l0 34.84c0,18.66 -5.39,33 -16.17,43.03 -10.78,10.02 -25.3,15.03 -43.55,15.03zm0 -24.47c10.23,0 18.18,-2.97 23.85,-8.92 5.67,-5.95 8.5,-13.9 8.5,-23.85l0 -36.5c0,-9.95 -2.83,-17.9 -8.5,-23.85 -5.67,-5.95 -13.62,-8.92 -23.85,-8.92 -10.09,0 -18,2.97 -23.74,8.92 -5.73,5.95 -8.61,13.89 -8.61,23.85l0 36.5c0,9.95 2.87,17.9 8.61,23.85 5.74,5.94 13.65,8.92 23.74,8.92z"/>
  <path id="_8" class="fil8" d="M1786.23 172.66l0 -145.16 59.72 0c9.12,0 17.18,1.83 24.16,5.49 6.98,3.66 12.44,8.81 16.38,15.45 3.94,6.63 5.91,14.51 5.91,23.64l0 2.91c0,8.99 -2.04,16.83 -6.12,23.54 -4.08,6.7 -9.61,11.89 -16.59,15.55 -6.98,3.66 -14.9,5.5 -23.74,5.5l-32.35 0 0 53.08 -27.37 0zm27.37 -77.97l29.65 0c6.5,0 11.75,-1.8 15.76,-5.39 4.01,-3.59 6.01,-8.5 6.01,-14.72l0 -2.07c0,-6.22 -2.01,-11.13 -6.01,-14.72 -4.01,-3.59 -9.26,-5.39 -15.76,-5.39l-29.65 0 0 42.3z"/>
  <polygon id="_9" class="fil8" points="1933.03,172.66 1933.03,27.5 1960.41,27.5 1960.41,172.66 "/>
  <path id="_10" class="fil8" d="M2064.5 175.56c-17.97,0 -32.21,-5.01 -42.72,-15.03 -10.51,-10.02 -15.76,-24.36 -15.76,-43.03l0 -34.84c0,-18.66 5.26,-33 15.76,-43.03 10.51,-10.03 24.75,-15.04 42.72,-15.04 17.83,0 31.62,4.87 41.37,14.62 9.75,9.75 14.62,23.12 14.62,40.13l0 1.24 -26.96 0 0 -2.07c0,-8.57 -2.39,-15.62 -7.15,-21.15 -4.77,-5.53 -12.06,-8.3 -21.88,-8.3 -9.68,0 -17.28,2.97 -22.81,8.92 -5.53,5.95 -8.3,14.03 -8.3,24.26l0 35.67c0,10.09 2.76,18.15 8.3,24.16 5.53,6.01 13.13,9.02 22.81,9.02 9.82,0 17.11,-2.8 21.88,-8.4 4.77,-5.6 7.15,-12.61 7.15,-21.05l0 -3.73 26.96 0 0 2.9c0,17.01 -4.87,30.38 -14.62,40.13 -9.75,9.74 -23.54,14.62 -41.37,14.62z"/>
  <path class="fil9" d="M633.39 315.62c-6.04,0 -11.37,-1.08 -16,-3.24 -4.62,-2.16 -8.24,-5.26 -10.85,-9.29 -2.61,-4.03 -3.91,-8.87 -3.91,-14.54l0 -3.14 14.54 0 0 3.14c0,4.7 1.45,8.22 4.36,10.57 2.91,2.35 6.86,3.52 11.86,3.52 5.07,0 8.86,-1.01 11.36,-3.02 2.5,-2.01 3.75,-4.59 3.75,-7.72 0,-2.16 -0.62,-3.91 -1.85,-5.26 -1.23,-1.34 -3.02,-2.44 -5.37,-3.3 -2.35,-0.86 -5.2,-1.66 -8.56,-2.4l-2.57 -0.56c-5.37,-1.19 -9.98,-2.7 -13.82,-4.53 -3.84,-1.83 -6.79,-4.23 -8.84,-7.22 -2.05,-2.98 -3.08,-6.86 -3.08,-11.63 0,-4.77 1.14,-8.86 3.41,-12.25 2.27,-3.4 5.48,-6.01 9.62,-7.83 4.14,-1.83 9.01,-2.74 14.6,-2.74 5.59,0 10.57,0.95 14.93,2.85 4.36,1.9 7.79,4.74 10.29,8.5 2.5,3.77 3.75,8.48 3.75,14.15l0 3.35 -14.54 0 0 -3.35c0,-2.99 -0.58,-5.39 -1.73,-7.22 -1.16,-1.83 -2.81,-3.17 -4.98,-4.03 -2.16,-0.86 -4.74,-1.29 -7.72,-1.29 -4.48,0 -7.78,0.84 -9.9,2.52 -2.13,1.68 -3.19,3.97 -3.19,6.88 0,1.94 0.5,3.58 1.51,4.92 1.01,1.34 2.52,2.46 4.53,3.36 2.01,0.9 4.59,1.68 7.72,2.35l2.57 0.56c5.59,1.19 10.46,2.72 14.6,4.59 4.14,1.86 7.37,4.32 9.68,7.38 2.31,3.06 3.47,6.98 3.47,11.75 0,4.77 -1.21,8.97 -3.64,12.59 -2.42,3.62 -5.85,6.45 -10.29,8.5 -4.44,2.05 -9.68,3.07 -15.72,3.07z"/>
  <path id="_1_1" class="fil9" d="M759.9 315.62c-9.85,0 -17.68,-2.7 -23.49,-8.11 -5.82,-5.41 -8.72,-13.15 -8.72,-23.22l0 -18.79c0,-10.07 2.91,-17.81 8.72,-23.21 5.82,-5.41 13.65,-8.11 23.49,-8.11 9.84,0 17.68,2.7 23.49,8.11 5.82,5.41 8.72,13.14 8.72,23.21l0 18.79c0,10.07 -2.91,17.81 -8.72,23.22 -5.82,5.41 -13.65,8.11 -23.49,8.11zm0 -13.2c5.52,0 9.8,-1.6 12.86,-4.81 3.06,-3.21 4.59,-7.5 4.59,-12.87l0 -19.69c0,-5.37 -1.53,-9.66 -4.59,-12.86 -3.06,-3.21 -7.35,-4.81 -12.86,-4.81 -5.44,0 -9.72,1.6 -12.81,4.81 -3.1,3.2 -4.64,7.5 -4.64,12.86l0 19.69c0,5.37 1.55,9.66 4.64,12.87 3.09,3.2 7.37,4.81 12.81,4.81z"/>
  <polygon id="_2_2" class="fil9" points="860.56,314.05 860.56,235.74 875.32,235.74 875.32,300.63 911.12,300.63 911.12,314.05 "/>
  <path id="_3_3" class="fil9" d="M1004.62 315.62c-6.41,0 -11.91,-1.18 -16.5,-3.52 -4.59,-2.35 -8.09,-5.71 -10.52,-10.07 -2.42,-4.36 -3.63,-9.53 -3.63,-15.49l0 -50.79 14.77 0 0 51.24c0,4.77 1.36,8.54 4.08,11.3 2.72,2.76 6.66,4.14 11.8,4.14 5.15,0 9.08,-1.38 11.8,-4.14 2.72,-2.76 4.08,-6.53 4.08,-11.3l0 -51.24 14.77 0 0 50.79c0,5.96 -1.21,11.13 -3.64,15.49 -2.42,4.36 -5.93,7.72 -10.52,10.07 -4.59,2.35 -10.08,3.52 -16.5,3.52z"/>
  <polygon id="_4_4" class="fil9" points="1123.18,314.05 1123.18,249.17 1100.36,249.17 1100.36,235.74 1160.77,235.74 1160.77,249.17 1137.95,249.17 1137.95,314.05 "/>
  <polygon id="_5_5" class="fil9" points="1226.31,314.05 1226.31,235.74 1241.07,235.74 1241.07,314.05 "/>
  <path id="_6_6" class="fil9" d="M1341.73 315.62c-9.85,0 -17.68,-2.7 -23.49,-8.11 -5.82,-5.41 -8.72,-13.15 -8.72,-23.22l0 -18.79c0,-10.07 2.91,-17.81 8.72,-23.21 5.82,-5.41 13.65,-8.11 23.49,-8.11 9.84,0 17.68,2.7 23.49,8.11 5.82,5.41 8.72,13.14 8.72,23.21l0 18.79c0,10.07 -2.91,17.81 -8.72,23.22 -5.82,5.41 -13.65,8.11 -23.49,8.11zm0 -13.2c5.52,0 9.8,-1.6 12.86,-4.81 3.06,-3.21 4.59,-7.5 4.59,-12.87l0 -19.69c0,-5.37 -1.53,-9.66 -4.59,-12.86 -3.06,-3.21 -7.35,-4.81 -12.86,-4.81 -5.44,0 -9.72,1.6 -12.81,4.81 -3.1,3.2 -4.64,7.5 -4.64,12.86l0 19.69c0,5.37 1.55,9.66 4.64,12.87 3.09,3.2 7.37,4.81 12.81,4.81z"/>
  <polygon id="_7_7" class="fil9" points="1442.39,314.05 1442.39,235.74 1470.47,235.74 1486.02,303.99 1488.04,303.99 1488.04,235.74 1502.58,235.74 1502.58,314.05 1474.5,314.05 1458.95,245.81 1456.93,245.81 1456.93,314.05 "/>
  <path id="_8_8" class="fil9" d="M1599.99 315.62c-6.04,0 -11.37,-1.08 -16,-3.24 -4.62,-2.16 -8.24,-5.26 -10.85,-9.29 -2.61,-4.03 -3.91,-8.87 -3.91,-14.54l0 -3.14 14.54 0 0 3.14c0,4.7 1.45,8.22 4.36,10.57 2.91,2.35 6.86,3.52 11.86,3.52 5.07,0 8.86,-1.01 11.36,-3.02 2.5,-2.01 3.75,-4.59 3.75,-7.72 0,-2.16 -0.62,-3.91 -1.85,-5.26 -1.23,-1.34 -3.02,-2.44 -5.37,-3.3 -2.35,-0.86 -5.2,-1.66 -8.56,-2.4l-2.57 -0.56c-5.37,-1.19 -9.98,-2.7 -13.82,-4.53 -3.84,-1.83 -6.79,-4.23 -8.84,-7.22 -2.05,-2.98 -3.08,-6.86 -3.08,-11.63 0,-4.77 1.14,-8.86 3.41,-12.25 2.27,-3.4 5.48,-6.01 9.62,-7.83 4.14,-1.83 9.01,-2.74 14.6,-2.74 5.59,0 10.57,0.95 14.93,2.85 4.36,1.9 7.79,4.74 10.29,8.5 2.5,3.77 3.75,8.48 3.75,14.15l0 3.35 -14.54 0 0 -3.35c0,-2.99 -0.58,-5.39 -1.73,-7.22 -1.16,-1.83 -2.81,-3.17 -4.98,-4.03 -2.16,-0.86 -4.74,-1.29 -7.72,-1.29 -4.48,0 -7.78,0.84 -9.9,2.52 -2.13,1.68 -3.19,3.97 -3.19,6.88 0,1.94 0.5,3.58 1.51,4.92 1.01,1.34 2.52,2.46 4.53,3.36 2.01,0.9 4.59,1.68 7.72,2.35l2.57 0.56c5.59,1.19 10.46,2.72 14.6,4.59 4.14,1.86 7.37,4.32 9.68,7.38 2.31,3.06 3.47,6.98 3.47,11.75 0,4.77 -1.21,8.97 -3.64,12.59 -2.42,3.62 -5.85,6.45 -10.29,8.5 -4.44,2.05 -9.68,3.07 -15.72,3.07z"/>
  <path class="fil10" d="M620.23 457.02c-5.38,0 -9.66,-1.47 -12.83,-4.43 -3.18,-2.95 -4.77,-7.18 -4.77,-12.68l0 -10.27c0,-5.5 1.59,-9.73 4.77,-12.68 3.18,-2.96 7.46,-4.43 12.83,-4.43 5.38,0 9.66,1.48 12.84,4.43 3.18,2.95 4.77,7.18 4.77,12.68l0 10.27c0,5.5 -1.59,9.73 -4.77,12.68 -3.18,2.96 -7.46,4.43 -12.84,4.43zm0 -7.21c3.02,0 5.36,-0.88 7.03,-2.63 1.67,-1.75 2.51,-4.09 2.51,-7.03l0 -10.76c0,-2.93 -0.83,-5.28 -2.51,-7.03 -1.67,-1.75 -4.01,-2.63 -7.03,-2.63 -2.97,0 -5.31,0.88 -6.99,2.63 -1.69,1.75 -2.54,4.1 -2.54,7.03l0 10.76c0,2.93 0.85,5.28 2.54,7.03 1.69,1.75 4.02,2.63 6.99,2.63z"/>
  <polygon id="_1_9" class="fil10" points="661.09,456.17 661.09,413.39 676.43,413.39 684.93,450.67 686.03,450.67 686.03,413.39 693.97,413.39 693.97,456.17 678.63,456.17 670.14,418.89 669.04,418.89 669.04,456.17 "/>
  <polygon id="_2_10" class="fil10" points="718.21,456.17 718.21,413.39 745.71,413.39 745.71,420.72 726.28,420.72 726.28,430.93 744,430.93 744,438.26 726.28,438.26 726.28,448.83 746.08,448.83 746.08,456.17 "/>
  <polygon id="_3_11" class="fil10" points="768.36,444.07 768.36,437.1 786.45,437.1 786.45,444.07 "/>
  <path id="_4_12" class="fil10" d="M825.66 457.02c-3.3,0 -6.21,-0.59 -8.74,-1.77 -2.53,-1.18 -4.5,-2.88 -5.93,-5.07 -1.42,-2.2 -2.14,-4.85 -2.14,-7.95l0 -1.71 7.94 0 0 1.71c0,2.57 0.79,4.49 2.38,5.78 1.59,1.28 3.75,1.93 6.48,1.93 2.77,0 4.84,-0.55 6.2,-1.65 1.36,-1.1 2.05,-2.51 2.05,-4.22 0,-1.18 -0.34,-2.14 -1.01,-2.87 -0.67,-0.73 -1.65,-1.33 -2.93,-1.8 -1.28,-0.47 -2.84,-0.91 -4.67,-1.31l-1.41 -0.31c-2.94,-0.65 -5.45,-1.48 -7.55,-2.47 -2.1,-1 -3.71,-2.31 -4.83,-3.94 -1.12,-1.63 -1.68,-3.75 -1.68,-6.36 0,-2.61 0.62,-4.84 1.86,-6.69 1.24,-1.85 2.99,-3.28 5.26,-4.28 2.26,-1 4.92,-1.5 7.97,-1.5 3.06,0 5.78,0.52 8.16,1.56 2.39,1.04 4.26,2.59 5.62,4.65 1.36,2.06 2.04,4.63 2.04,7.73l0 1.83 -7.94 0 0 -1.83c0,-1.63 -0.31,-2.94 -0.95,-3.94 -0.63,-1 -1.54,-1.73 -2.72,-2.2 -1.18,-0.47 -2.58,-0.7 -4.22,-0.7 -2.45,0 -4.25,0.46 -5.41,1.37 -1.16,0.92 -1.74,2.17 -1.74,3.76 0,1.06 0.28,1.96 0.83,2.69 0.55,0.74 1.37,1.35 2.47,1.83 1.1,0.49 2.51,0.92 4.22,1.29l1.41 0.3c3.06,0.65 5.71,1.49 7.97,2.51 2.26,1.02 4.02,2.36 5.29,4.03 1.26,1.67 1.9,3.81 1.9,6.42 0,2.61 -0.66,4.9 -1.99,6.88 -1.32,1.98 -3.2,3.53 -5.62,4.64 -2.42,1.12 -5.28,1.68 -8.58,1.68z"/>
  <polygon id="_5_13" class="fil10" points="872.57,456.17 872.57,420.72 860.1,420.72 860.1,413.39 893.1,413.39 893.1,420.72 880.64,420.72 880.64,456.17 "/>
  <path id="_6_14" class="fil10" d="M929.68 457.02c-5.38,0 -9.66,-1.47 -12.83,-4.43 -3.18,-2.95 -4.77,-7.18 -4.77,-12.68l0 -10.27c0,-5.5 1.59,-9.73 4.77,-12.68 3.18,-2.96 7.46,-4.43 12.83,-4.43 5.38,0 9.66,1.48 12.84,4.43 3.18,2.95 4.77,7.18 4.77,12.68l0 10.27c0,5.5 -1.59,9.73 -4.77,12.68 -3.18,2.96 -7.46,4.43 -12.84,4.43zm0 -7.21c3.02,0 5.36,-0.88 7.03,-2.63 1.67,-1.75 2.51,-4.09 2.51,-7.03l0 -10.76c0,-2.93 -0.83,-5.28 -2.51,-7.03 -1.67,-1.75 -4.01,-2.63 -7.03,-2.63 -2.97,0 -5.31,0.88 -6.99,2.63 -1.69,1.75 -2.54,4.1 -2.54,7.03l0 10.76c0,2.93 0.85,5.28 2.54,7.03 1.69,1.75 4.02,2.63 6.99,2.63z"/>
  <path id="_7_15" class="fil10" d="M970.55 456.17l0 -42.78 17.6 0c2.69,0 5.06,0.54 7.12,1.62 2.06,1.08 3.66,2.6 4.83,4.55 1.16,1.96 1.74,4.28 1.74,6.97l0 0.85c0,2.65 -0.6,4.96 -1.8,6.94 -1.2,1.98 -2.83,3.5 -4.89,4.58 -2.06,1.08 -4.39,1.62 -7,1.62l-9.53 0 0 15.65 -8.07 0zm8.07 -22.98l8.74 0c1.92,0 3.46,-0.53 4.65,-1.59 1.18,-1.06 1.77,-2.51 1.77,-4.34l0 -0.61c0,-1.83 -0.59,-3.28 -1.77,-4.34 -1.18,-1.06 -2.73,-1.59 -4.65,-1.59l-8.74 0 0 12.47z"/>
  <path id="_8_16" class="fil10" d="M1039.16 456.17l0 -42.78 17.6 0c2.69,0 5.06,0.54 7.12,1.62 2.06,1.08 3.66,2.6 4.83,4.55 1.16,1.96 1.74,4.28 1.74,6.97l0 0.85c0,2.65 -0.6,4.96 -1.8,6.94 -1.2,1.98 -2.83,3.5 -4.89,4.58 -2.06,1.08 -4.39,1.62 -7,1.62l-9.53 0 0 15.65 -8.07 0zm8.07 -22.98l8.74 0c1.92,0 3.46,-0.53 4.65,-1.59 1.18,-1.06 1.77,-2.51 1.77,-4.34l0 -0.61c0,-1.83 -0.59,-3.28 -1.77,-4.34 -1.18,-1.06 -2.73,-1.59 -4.65,-1.59l-8.74 0 0 12.47z"/>
  <path id="_9_17" class="fil10" d="M1092.24 456.17l0 -42.78 18.58 0c2.69,0 5.03,0.47 7.03,1.41 2,0.94 3.55,2.26 4.64,3.97 1.1,1.71 1.65,3.73 1.65,6.05l0 0.74c0,2.57 -0.61,4.64 -1.83,6.23 -1.22,1.59 -2.73,2.75 -4.52,3.48l0 1.1c1.63,0.08 2.89,0.64 3.79,1.68 0.9,1.04 1.34,2.42 1.34,4.12l0 14 -8.07 0 0 -12.83c0,-0.98 -0.26,-1.77 -0.77,-2.39 -0.51,-0.61 -1.36,-0.91 -2.53,-0.91l-11.24 0 0 16.13 -8.07 0zm8.07 -23.47l9.66 0c1.91,0 3.41,-0.52 4.49,-1.56 1.08,-1.04 1.62,-2.41 1.62,-4.12l0 -0.61c0,-1.71 -0.53,-3.09 -1.59,-4.12 -1.06,-1.04 -2.57,-1.56 -4.52,-1.56l-9.66 0 0 11.98z"/>
  <polygon id="_10_18" class="fil10" points="1147.04,456.17 1147.04,413.39 1155.1,413.39 1155.1,456.17 "/>
  <polygon id="_11" class="fil10" points="1179.34,456.17 1179.34,413.39 1194.68,413.39 1203.17,450.67 1204.27,450.67 1204.27,413.39 1212.22,413.39 1212.22,456.17 1196.88,456.17 1188.38,418.89 1187.28,418.89 1187.28,456.17 "/>
  <polygon id="_12" class="fil10" points="1246.36,456.17 1246.36,420.72 1233.89,420.72 1233.89,413.39 1266.89,413.39 1266.89,420.72 1254.42,420.72 1254.42,456.17 "/>
  <polygon id="_13" class="fil10" points="1288.56,456.17 1288.56,413.39 1296.63,413.39 1296.63,456.17 "/>
  <polygon id="_14" class="fil10" points="1320.87,456.17 1320.87,413.39 1336.2,413.39 1344.7,450.67 1345.8,450.67 1345.8,413.39 1353.74,413.39 1353.74,456.17 1338.4,456.17 1329.91,418.89 1328.81,418.89 1328.81,456.17 "/>
  <path id="_15" class="fil10" d="M1392.77 457.02c-2.94,0 -5.59,-0.66 -7.98,-1.98 -2.38,-1.32 -4.28,-3.26 -5.68,-5.81 -1.41,-2.55 -2.11,-5.65 -2.11,-9.32l0 -10.27c0,-5.5 1.55,-9.73 4.64,-12.68 3.1,-2.96 7.29,-4.43 12.59,-4.43 5.26,0 9.32,1.4 12.19,4.19 2.88,2.79 4.31,6.57 4.31,11.34l0 0.25 -7.94 0 0 -0.49c0,-1.51 -0.32,-2.87 -0.95,-4.09 -0.63,-1.23 -1.58,-2.19 -2.84,-2.91 -1.26,-0.71 -2.85,-1.07 -4.77,-1.07 -2.85,0 -5.1,0.88 -6.72,2.63 -1.63,1.75 -2.45,4.14 -2.45,7.15l0 10.51c0,2.97 0.82,5.37 2.45,7.18 1.63,1.81 3.91,2.72 6.85,2.72 2.93,0 5.07,-0.77 6.42,-2.32 1.34,-1.55 2.02,-3.5 2.02,-5.87l0 -0.61 -10.15 0 0 -6.85 18.09 0 0 21.88 -7.46 0 0 -4.1 -1.1 0c-0.29,0.69 -0.74,1.43 -1.37,2.2 -0.63,0.77 -1.58,1.43 -2.84,1.96 -1.26,0.53 -2.99,0.79 -5.19,0.79z"/>
  <path id="_16" class="fil10" d="M1462.42 457.02c-4.4,0 -7.89,-1.2 -10.48,-3.6 -2.58,-2.4 -3.88,-5.77 -3.88,-10.08l0 -4.04 8.07 0 0 4.04c0,1.91 0.53,3.41 1.59,4.49 1.06,1.08 2.55,1.62 4.46,1.62 1.8,0 3.19,-0.53 4.19,-1.59 1,-1.06 1.5,-2.57 1.5,-4.52l0 -22.61 -7.34 0 0 -7.33 20.29 0 0 7.33 -4.89 0 0 22.61c0,4.44 -1.2,7.83 -3.61,10.18 -2.4,2.34 -5.7,3.51 -9.9,3.51z"/>
  <path id="_17" class="fil10" d="M1519.1 457.02c-5.38,0 -9.66,-1.47 -12.83,-4.43 -3.18,-2.95 -4.77,-7.18 -4.77,-12.68l0 -10.27c0,-5.5 1.59,-9.73 4.77,-12.68 3.18,-2.96 7.46,-4.43 12.83,-4.43 5.38,0 9.66,1.48 12.84,4.43 3.18,2.95 4.77,7.18 4.77,12.68l0 10.27c0,5.5 -1.59,9.73 -4.77,12.68 -3.18,2.96 -7.46,4.43 -12.84,4.43zm0 -7.21c3.02,0 5.36,-0.88 7.03,-2.63 1.67,-1.75 2.51,-4.09 2.51,-7.03l0 -10.76c0,-2.93 -0.83,-5.28 -2.51,-7.03 -1.67,-1.75 -4.01,-2.63 -7.03,-2.63 -2.97,0 -5.31,0.88 -6.99,2.63 -1.69,1.75 -2.54,4.1 -2.54,7.03l0 10.76c0,2.93 0.85,5.28 2.54,7.03 1.69,1.75 4.02,2.63 6.99,2.63z"/>
  <path id="_18" class="fil10" d="M1557.4 456.17l0 -7.09 5.62 0 0 -28.6 -5.62 0 0 -7.09 22 0c2.61,0 4.88,0.44 6.81,1.31 1.93,0.88 3.44,2.12 4.52,3.73 1.08,1.61 1.62,3.53 1.62,5.77l0 0.61c0,1.96 -0.37,3.55 -1.1,4.8 -0.74,1.24 -1.6,2.2 -2.6,2.87 -1,0.67 -1.94,1.15 -2.84,1.44l0 1.1c0.9,0.25 1.88,0.7 2.93,1.37 1.06,0.67 1.97,1.64 2.72,2.9 0.75,1.26 1.13,2.91 1.13,4.95l0 0.61c0,2.36 -0.55,4.39 -1.65,6.08 -1.1,1.69 -2.62,2.99 -4.55,3.88 -1.94,0.9 -4.19,1.34 -6.75,1.34l-22.25 0zm13.69 -7.34l7.58 0c1.75,0 3.17,-0.42 4.25,-1.28 1.08,-0.85 1.62,-2.08 1.62,-3.67l0 -0.61c0,-1.59 -0.53,-2.81 -1.59,-3.67 -1.06,-0.85 -2.48,-1.28 -4.28,-1.28l-7.58 0 0 10.51zm0 -17.84l7.45 0c1.67,0 3.05,-0.42 4.13,-1.28 1.08,-0.85 1.62,-2.04 1.62,-3.55l0 -0.61c0,-1.55 -0.53,-2.74 -1.59,-3.58 -1.06,-0.83 -2.45,-1.26 -4.16,-1.26l-7.45 0 0 10.27z"/>
  <polygon id="_19" class="fil10" points="1618.79,456.17 1613.17,413.39 1621.18,413.39 1625.33,450.54 1626.43,450.54 1631.81,413.39 1645.74,413.39 1651.12,450.54 1652.22,450.54 1656.38,413.39 1664.38,413.39 1658.76,456.17 1644.83,456.17 1639.33,418.16 1638.23,418.16 1632.73,456.17 "/>
  <path id="_20" class="fil10" d="M1702.67 457.02c-5.38,0 -9.66,-1.47 -12.83,-4.43 -3.18,-2.95 -4.77,-7.18 -4.77,-12.68l0 -10.27c0,-5.5 1.59,-9.73 4.77,-12.68 3.18,-2.96 7.46,-4.43 12.83,-4.43 5.38,0 9.66,1.48 12.84,4.43 3.18,2.95 4.77,7.18 4.77,12.68l0 10.27c0,5.5 -1.59,9.73 -4.77,12.68 -3.18,2.96 -7.46,4.43 -12.84,4.43zm0 -7.21c3.02,0 5.36,-0.88 7.03,-2.63 1.67,-1.75 2.51,-4.09 2.51,-7.03l0 -10.76c0,-2.93 -0.83,-5.28 -2.51,-7.03 -1.67,-1.75 -4.01,-2.63 -7.03,-2.63 -2.97,0 -5.31,0.88 -6.99,2.63 -1.69,1.75 -2.54,4.1 -2.54,7.03l0 10.76c0,2.93 0.85,5.28 2.54,7.03 1.69,1.75 4.02,2.63 6.99,2.63z"/>
  <path id="_21" class="fil10" d="M1743.54 456.17l0 -42.78 18.58 0c2.69,0 5.03,0.47 7.03,1.41 2,0.94 3.55,2.26 4.64,3.97 1.1,1.71 1.65,3.73 1.65,6.05l0 0.74c0,2.57 -0.61,4.64 -1.83,6.23 -1.22,1.59 -2.73,2.75 -4.52,3.48l0 1.1c1.63,0.08 2.89,0.64 3.79,1.68 0.9,1.04 1.34,2.42 1.34,4.12l0 14 -8.07 0 0 -12.83c0,-0.98 -0.26,-1.77 -0.77,-2.39 -0.51,-0.61 -1.36,-0.91 -2.53,-0.91l-11.24 0 0 16.13 -8.07 0zm8.07 -23.47l9.66 0c1.91,0 3.41,-0.52 4.49,-1.56 1.08,-1.04 1.62,-2.41 1.62,-4.12l0 -0.61c0,-1.71 -0.53,-3.09 -1.59,-4.12 -1.06,-1.04 -2.57,-1.56 -4.52,-1.56l-9.66 0 0 11.98z"/>
  <polygon id="_22" class="fil10" points="1798.34,456.17 1798.34,413.39 1806.4,413.39 1806.4,430.38 1807.5,430.38 1821.37,413.39 1831.7,413.39 1813.86,434.47 1832.31,456.17 1821.68,456.17 1807.5,438.81 1806.4,438.81 1806.4,456.17 "/>
  <path id="_23" class="fil10" d="M1867.06 456.17l0 -7.09 5.62 0 0 -28.6 -5.62 0 0 -7.09 22 0c2.61,0 4.88,0.44 6.81,1.31 1.93,0.88 3.44,2.12 4.52,3.73 1.08,1.61 1.62,3.53 1.62,5.77l0 0.61c0,1.96 -0.37,3.55 -1.1,4.8 -0.74,1.24 -1.6,2.2 -2.6,2.87 -1,0.67 -1.94,1.15 -2.84,1.44l0 1.1c0.9,0.25 1.88,0.7 2.93,1.37 1.06,0.67 1.97,1.64 2.72,2.9 0.75,1.26 1.13,2.91 1.13,4.95l0 0.61c0,2.36 -0.55,4.39 -1.65,6.08 -1.1,1.69 -2.62,2.99 -4.55,3.88 -1.94,0.9 -4.19,1.34 -6.75,1.34l-22.25 0zm13.69 -7.34l7.58 0c1.75,0 3.17,-0.42 4.25,-1.28 1.08,-0.85 1.62,-2.08 1.62,-3.67l0 -0.61c0,-1.59 -0.53,-2.81 -1.59,-3.67 -1.06,-0.85 -2.48,-1.28 -4.28,-1.28l-7.58 0 0 10.51zm0 -17.84l7.45 0c1.67,0 3.05,-0.42 4.13,-1.28 1.08,-0.85 1.62,-2.04 1.62,-3.55l0 -0.61c0,-1.55 -0.53,-2.74 -1.59,-3.58 -1.06,-0.83 -2.45,-1.26 -4.16,-1.26l-7.45 0 0 10.27z"/>
  <path id="_24" class="fil10" d="M1941.54 457.02c-3.51,0 -6.51,-0.64 -9.02,-1.92 -2.5,-1.29 -4.42,-3.12 -5.74,-5.5 -1.32,-2.39 -1.99,-5.21 -1.99,-8.46l0 -27.74 8.07 0 0 27.99c0,2.61 0.74,4.66 2.23,6.17 1.49,1.51 3.64,2.26 6.45,2.26 2.81,0 4.96,-0.75 6.45,-2.26 1.49,-1.51 2.23,-3.56 2.23,-6.17l0 -27.99 8.07 0 0 27.74c0,3.26 -0.66,6.08 -1.98,8.46 -1.32,2.39 -3.24,4.22 -5.75,5.5 -2.5,1.28 -5.51,1.92 -9.01,1.92z"/>
  <path id="_25" class="fil10" d="M1981.05 456.17l0 -7.09 5.62 0 0 -28.6 -5.62 0 0 -7.09 17.6 0c5.74,0 10.11,1.45 13.11,4.37 2.99,2.91 4.49,7.24 4.49,12.99l0 8.07c0,5.74 -1.5,10.07 -4.49,12.99 -2.99,2.91 -7.37,4.37 -13.11,4.37l-17.6 0zm13.69 -7.34l4.04 0c3.26,0 5.64,-0.85 7.15,-2.57 1.51,-1.71 2.26,-4.12 2.26,-7.21l0 -8.55c0,-3.14 -0.75,-5.55 -2.26,-7.24 -1.51,-1.69 -3.89,-2.54 -7.15,-2.54l-4.04 0 0 28.11z"/>
  <path id="_26" class="fil10" d="M2036.58 456.17l0 -7.09 5.62 0 0 -28.6 -5.62 0 0 -7.09 17.6 0c5.74,0 10.11,1.45 13.11,4.37 2.99,2.91 4.49,7.24 4.49,12.99l0 8.07c0,5.74 -1.5,10.07 -4.49,12.99 -2.99,2.91 -7.37,4.37 -13.11,4.37l-17.6 0zm13.69 -7.34l4.04 0c3.26,0 5.64,-0.85 7.15,-2.57 1.51,-1.71 2.26,-4.12 2.26,-7.21l0 -8.55c0,-3.14 -0.75,-5.55 -2.26,-7.24 -1.51,-1.69 -3.89,-2.54 -7.15,-2.54l-4.04 0 0 28.11z"/>
  <polygon id="_27" class="fil10" points="2103.96,456.17 2103.96,441.44 2089.42,413.39 2098.4,413.39 2107.44,431.72 2108.54,431.72 2117.59,413.39 2126.57,413.39 2112.03,441.44 2112.03,456.17 "/>
 </g>
</svg>
