<?xml version="1.0" encoding="UTF-8"?>
<!DOCTYPE svg PUBLIC "-//W3C//DTD SVG 1.1//EN" "http://www.w3.org/Graphics/SVG/1.1/DTD/svg11.dtd">
<!-- Creator: CorelDRAW -->
<svg xmlns="http://www.w3.org/2000/svg" xml:space="preserve" width="5.10287in" height="0.813539in" version="1.1" style="shape-rendering:geometricPrecision; text-rendering:geometricPrecision; image-rendering:optimizeQuality; fill-rule:evenodd; clip-rule:evenodd"
viewBox="0 0 5097.67 812.71"
 xmlns:xlink="http://www.w3.org/1999/xlink"
 xmlns:xodm="http://www.corel.com/coreldraw/odm/2003">
 <defs>
  <style type="text/css">
   <![CDATA[
    .str0 {stroke:#2A2A2A;stroke-width:10.41;stroke-miterlimit:22.9256}
    .str1 {stroke:#0D0D0D;stroke-width:56.19;stroke-linecap:round;stroke-linejoin:round;stroke-miterlimit:22.9256}
    .fil5 {fill:none;fill-rule:nonzero}
    .fil6 {fill:#0D0D0D;fill-rule:nonzero}
    .fil0 {fill:#1A1A1A;fill-rule:nonzero}
    .fil1 {fill:#F5C518;fill-rule:nonzero}
    .fil4 {fill:#F5C518;fill-rule:nonzero;fill-opacity:0.301961}
    .fil3 {fill:#F5C518;fill-rule:nonzero;fill-opacity:0.501961}
    .fil2 {fill:#F5C518;fill-rule:nonzero;fill-opacity:0.800000}
   ]]>
  </style>
 </defs>
 <g id="Layer_x0020_1">
  <metadata id="CorelCorpID_0Corel-Layer"/>
  <g id="_3143386482320">
   <g>
    <path class="fil0 str0" d="M179.03 5.2l454.64 0c96,0 173.84,77.85 173.84,173.83l-0 454.64c0,95.98 -77.84,173.83 -173.83,173.83l-454.65 0c-95.98,0 -173.83,-77.85 -173.83,-173.83l0 -454.64c0,-95.99 77.85,-173.83 173.83,-173.83z"/>
    <path class="fil1" d="M175.69 152.29l461.32 0c20.31,0 36.78,16.47 36.78,36.77l-0 -0c0,20.31 -16.46,36.77 -36.77,36.77l-461.33 0c-20.3,0 -36.77,-16.47 -36.77,-36.77l-0 -0c0,-20.3 16.47,-36.77 36.78,-36.77z"/>
    <path class="fil2" d="M172.35 286.01l468.01 0c18.46,0 33.43,14.97 33.43,33.43l-0 -0c0,18.46 -14.97,33.43 -33.43,33.43l-468.01 -0c-18.45,0 -33.43,-14.97 -33.43,-33.43l-0 -0c0,-18.46 14.98,-33.43 33.43,-33.43z"/>
    <path class="fil3" d="M169 413.04l314.24 0c16.61,0 30.09,13.47 30.09,30.08l-0 0c0,16.61 -13.47,30.09 -30.08,30.09l-314.24 0c-16.61,0 -30.08,-13.47 -30.08,-30.09l-0 0c0,-16.61 13.48,-30.08 30.09,-30.08z"/>
    <path class="fil4" d="M169 533.39l207.26 0c16.62,0 30.09,13.47 30.09,30.08l-0 0c0,16.61 -13.47,30.09 -30.08,30.09l-207.26 0c-16.61,0 -30.08,-13.47 -30.08,-30.09l-0 0c0,-16.61 13.48,-30.08 30.09,-30.08z"/>
    <circle class="fil1" cx="606.93" cy="593.56" r="120.35"/>
    <polyline class="fil5 str1" points="556.79,593.56 590.22,626.99 650.39,566.81 "/>
   </g>
   <path class="fil6" d="M1013.34 633.99l0 -455.26 187.3 0c28.62,0 53.87,5.75 75.77,17.23 21.9,11.49 39.02,27.64 51.38,48.45 12.36,20.81 18.54,45.52 18.54,74.14l0 9.1c0,28.18 -6.4,52.79 -19.19,73.82 -12.79,21.03 -30.13,37.29 -52.03,48.78 -21.9,11.49 -46.72,17.23 -74.47,17.23l-101.46 0 0 166.5 -85.85 0zm85.85 -244.54l93 0c20.38,0 36.85,-5.64 49.43,-16.91 12.57,-11.27 18.86,-26.67 18.86,-46.18l0 -6.5c0,-19.51 -6.29,-34.91 -18.86,-46.18 -12.57,-11.27 -29.05,-16.91 -49.43,-16.91l-93 0 0 132.68z"/>
   <path id="_1" class="fil6" d="M1406.17 633.99l0 -455.26 197.71 0c28.62,0 53.55,4.99 74.79,14.96 21.25,9.97 37.72,24.07 49.43,42.28 11.7,18.21 17.56,39.67 17.56,64.39l0 7.8c0,27.31 -6.5,49.43 -19.51,66.34 -13.01,16.91 -29.05,29.27 -48.13,37.07l0 11.7c17.34,0.87 30.78,6.83 40.32,17.89 9.54,11.06 14.31,25.69 14.31,43.9l0 148.93 -85.85 0 0 -136.58c0,-10.41 -2.71,-18.86 -8.13,-25.36 -5.42,-6.51 -14.41,-9.76 -26.99,-9.76l-119.67 0 0 171.7 -85.85 0zm85.85 -249.74l102.76 0c20.38,0 36.31,-5.53 47.8,-16.59 11.49,-11.06 17.24,-25.69 17.24,-43.9l0 -6.51c0,-18.21 -5.64,-32.84 -16.91,-43.9 -11.27,-11.06 -27.31,-16.59 -48.13,-16.59l-102.76 0 0 127.48z"/>
   <polygon id="_2" class="fil6" points="1817.2,633.99 1817.2,178.73 2109.86,178.73 2109.86,256.77 1903.05,256.77 1903.05,365.38 2091.65,365.38 2091.65,443.43 1903.05,443.43 1903.05,555.94 2113.77,555.94 2113.77,633.99 "/>
   <path id="_3" class="fil6" d="M2335.54 643.09c-35.12,0 -66.12,-6.28 -93,-18.86 -26.88,-12.57 -47.91,-30.57 -63.09,-53.98 -15.17,-23.41 -22.76,-51.59 -22.76,-84.55l0 -18.21 84.55 0 0 18.21c0,27.31 8.45,47.8 25.36,61.46 16.91,13.66 39.89,20.49 68.94,20.49 29.49,0 51.49,-5.85 66.02,-17.56 14.52,-11.7 21.78,-26.67 21.78,-44.88 0,-12.57 -3.58,-22.76 -10.73,-30.57 -7.15,-7.8 -17.56,-14.2 -31.22,-19.19 -13.66,-4.99 -30.24,-9.65 -49.75,-13.98l-14.96 -3.25c-31.22,-6.94 -57.99,-15.72 -80.32,-26.34 -22.33,-10.62 -39.46,-24.61 -51.38,-41.95 -11.92,-17.34 -17.89,-39.89 -17.89,-67.64 0,-27.75 6.61,-51.49 19.84,-71.21 13.22,-19.73 31.87,-34.91 55.93,-45.53 24.06,-10.62 52.36,-15.93 84.87,-15.93 32.52,0 61.46,5.53 86.82,16.59 25.36,11.06 45.31,27.53 59.83,49.43 14.52,21.89 21.79,49.32 21.79,82.27l0 19.51 -84.55 0 0 -19.51c0,-17.34 -3.36,-31.33 -10.08,-41.95 -6.72,-10.62 -16.37,-18.43 -28.94,-23.41 -12.57,-4.99 -27.53,-7.48 -44.88,-7.48 -26.02,0 -45.2,4.88 -57.56,14.63 -12.36,9.75 -18.54,23.09 -18.54,39.99 0,11.28 2.93,20.81 8.78,28.62 5.85,7.81 14.63,14.31 26.34,19.51 11.7,5.2 26.67,9.76 44.88,13.66l14.96 3.25c32.52,6.94 60.81,15.83 84.87,26.67 24.07,10.84 42.82,25.15 56.26,42.92 13.44,17.77 20.16,40.54 20.16,68.29 0,27.75 -7.04,52.14 -21.14,73.17 -14.09,21.03 -34.04,37.5 -59.83,49.43 -25.8,11.92 -56.26,17.88 -91.38,17.88z"/>
   <path id="_4" class="fil6" d="M2729.67 643.09c-35.12,0 -66.12,-6.28 -93,-18.86 -26.88,-12.57 -47.91,-30.57 -63.09,-53.98 -15.17,-23.41 -22.76,-51.59 -22.76,-84.55l0 -18.21 84.55 0 0 18.21c0,27.31 8.45,47.8 25.36,61.46 16.91,13.66 39.89,20.49 68.94,20.49 29.49,0 51.49,-5.85 66.02,-17.56 14.52,-11.7 21.78,-26.67 21.78,-44.88 0,-12.57 -3.58,-22.76 -10.73,-30.57 -7.15,-7.8 -17.56,-14.2 -31.22,-19.19 -13.66,-4.99 -30.24,-9.65 -49.75,-13.98l-14.96 -3.25c-31.22,-6.94 -57.99,-15.72 -80.32,-26.34 -22.33,-10.62 -39.46,-24.61 -51.38,-41.95 -11.92,-17.34 -17.89,-39.89 -17.89,-67.64 0,-27.75 6.61,-51.49 19.84,-71.21 13.22,-19.73 31.87,-34.91 55.93,-45.53 24.06,-10.62 52.36,-15.93 84.87,-15.93 32.52,0 61.46,5.53 86.82,16.59 25.36,11.06 45.31,27.53 59.83,49.43 14.52,21.89 21.79,49.32 21.79,82.27l0 19.51 -84.55 0 0 -19.51c0,-17.34 -3.36,-31.33 -10.08,-41.95 -6.72,-10.62 -16.37,-18.43 -28.94,-23.41 -12.57,-4.99 -27.53,-7.48 -44.88,-7.48 -26.02,0 -45.2,4.88 -57.56,14.63 -12.36,9.75 -18.54,23.09 -18.54,39.99 0,11.28 2.93,20.81 8.78,28.62 5.85,7.81 14.63,14.31 26.34,19.51 11.7,5.2 26.67,9.76 44.88,13.66l14.96 3.25c32.52,6.94 60.81,15.83 84.87,26.67 24.07,10.84 42.82,25.15 56.26,42.92 13.44,17.77 20.16,40.54 20.16,68.29 0,27.75 -7.04,52.14 -21.14,73.17 -14.09,21.03 -34.04,37.5 -59.83,49.43 -25.8,11.92 -56.26,17.88 -91.38,17.88z"/>
   <polygon id="_5" class="fil6" points="3056.81,633.99 3056.81,256.77 2924.13,256.77 2924.13,178.73 3275.33,178.73 3275.33,256.77 3142.66,256.77 3142.66,633.99 "/>
   <path id="_6" class="fil6" d="M3333.86 633.99l0 -455.26 197.71 0c28.62,0 53.55,4.99 74.79,14.96 21.25,9.97 37.72,24.07 49.43,42.28 11.7,18.21 17.56,39.67 17.56,64.39l0 7.8c0,27.31 -6.5,49.43 -19.51,66.34 -13.01,16.91 -29.05,29.27 -48.13,37.07l0 11.7c17.34,0.87 30.78,6.83 40.32,17.89 9.54,11.06 14.31,25.69 14.31,43.9l0 148.93 -85.85 0 0 -136.58c0,-10.41 -2.71,-18.86 -8.13,-25.36 -5.42,-6.51 -14.41,-9.76 -26.99,-9.76l-119.67 0 0 171.7 -85.85 0zm85.85 -249.74l102.76 0c20.38,0 36.31,-5.53 47.8,-16.59 11.49,-11.06 17.24,-25.69 17.24,-43.9l0 -6.51c0,-18.21 -5.64,-32.84 -16.91,-43.9 -11.27,-11.06 -27.31,-16.59 -48.13,-16.59l-102.76 0 0 127.48z"/>
   <path id="_7" class="fil6" d="M3921.8 643.09c-57.23,0 -102.76,-15.72 -136.58,-47.15 -33.82,-31.43 -50.73,-76.42 -50.73,-134.95l0 -109.26c0,-58.53 16.91,-103.52 50.73,-134.95 33.82,-31.44 79.35,-47.15 136.58,-47.15 57.23,0 102.76,15.72 136.58,47.15 33.82,31.43 50.73,76.42 50.73,134.95l0 109.26c0,58.53 -16.91,103.52 -50.73,134.95 -33.82,31.44 -79.34,47.15 -136.58,47.15zm0 -76.74c32.09,0 57.02,-9.32 74.79,-27.96 17.78,-18.65 26.67,-43.58 26.67,-74.79l0 -114.47c0,-31.22 -8.89,-56.15 -26.67,-74.79 -17.77,-18.64 -42.7,-27.96 -74.79,-27.96 -31.65,0 -56.47,9.32 -74.47,27.96 -17.99,18.65 -26.99,43.58 -26.99,74.79l0 114.47c0,31.22 9,56.15 26.99,74.79 17.99,18.64 42.81,27.96 74.47,27.96z"/>
   <path id="_8" class="fil6" d="M4184.54 633.99l0 -455.26 187.3 0c28.62,0 53.87,5.75 75.77,17.23 21.9,11.49 39.02,27.64 51.38,48.45 12.36,20.81 18.54,45.52 18.54,74.14l0 9.1c0,28.18 -6.4,52.79 -19.19,73.82 -12.79,21.03 -30.13,37.29 -52.03,48.78 -21.9,11.49 -46.72,17.23 -74.47,17.23l-101.46 0 0 166.5 -85.85 0zm85.85 -244.54l93 0c20.38,0 36.85,-5.64 49.43,-16.91 12.57,-11.27 18.86,-26.67 18.86,-46.18l0 -6.5c0,-19.51 -6.29,-34.91 -18.86,-46.18 -12.57,-11.27 -29.05,-16.91 -49.43,-16.91l-93 0 0 132.68z"/>
   <polygon id="_9" class="fil6" points="4577.37,633.99 4577.37,178.73 4663.22,178.73 4663.22,633.99 "/>
   <path id="_10" class="fil6" d="M4922.07 643.09c-56.37,0 -101.03,-15.72 -133.98,-47.15 -32.95,-31.43 -49.43,-76.42 -49.43,-134.95l0 -109.26c0,-58.53 16.48,-103.52 49.43,-134.95 32.95,-31.44 77.61,-47.15 133.98,-47.15 55.93,0 99.18,15.28 129.75,45.85 30.57,30.57 45.85,72.52 45.85,125.85l0 3.9 -84.55 0 0 -6.51c0,-26.88 -7.48,-48.99 -22.44,-66.34 -14.96,-17.34 -37.83,-26.01 -68.61,-26.01 -30.35,0 -54.2,9.32 -71.54,27.96 -17.34,18.65 -26.02,44.01 -26.02,76.1l0 111.86c0,31.65 8.67,56.91 26.02,75.77 17.34,18.86 41.19,28.29 71.54,28.29 30.78,0 53.65,-8.78 68.61,-26.34 14.96,-17.56 22.44,-39.57 22.44,-66.01l0 -11.71 84.55 0 0 9.1c0,53.33 -15.29,95.28 -45.85,125.85 -30.57,30.57 -73.81,45.85 -129.75,45.85z"/>
  </g>
 </g>
</svg>
