<?xml version="1.0" encoding="UTF-8"?>
<!DOCTYPE svg PUBLIC "-//W3C//DTD SVG 1.1//EN" "http://www.w3.org/Graphics/SVG/1.1/DTD/svg11.dtd">
<!-- Creator: CorelDRAW -->
<svg xmlns="http://www.w3.org/2000/svg" xml:space="preserve" width="0.75778in" height="0.826661in" version="1.1" style="shape-rendering:geometricPrecision; text-rendering:geometricPrecision; image-rendering:optimizeQuality; fill-rule:evenodd; clip-rule:evenodd"
viewBox="0 0 111.07 121.17"
 xmlns:xlink="http://www.w3.org/1999/xlink"
 xmlns:xodm="http://www.corel.com/coreldraw/odm/2003">
 <defs>
  <style type="text/css">
   <![CDATA[
    .fil0 {fill:#373435;fill-rule:nonzero}
   ]]>
  </style>
 </defs>
 <g id="Layer_x0020_1">
  <metadata id="CorelCorpID_0Corel-Layer"/>
  <g id="_2096861097136">
   <g>
    <polygon class="fil0" points="59.69,0 59.69,121.17 51.38,121.17 51.38,0 "/>
   </g>
   <g>
    <polygon class="fil0" points="-0,56.08 111.07,56.08 111.07,65.09 -0,65.09 "/>
   </g>
   <g>
    <path class="fil0" d="M90.72 60.58l-9.77 0 0 0 -0.03 -1.31 -0.1 -1.29 -0.16 -1.27 -0.22 -1.25 -0.28 -1.23 -0.34 -1.2 -0.4 -1.18 -0.45 -1.15 -0.51 -1.12 -0.56 -1.09 -0.61 -1.06 -0.66 -1.03 -0.71 -1 -0.76 -0.96 -0.8 -0.92 -0.84 -0.88 -0.88 -0.84 -0.92 -0.8 -0.96 -0.75 -1 -0.71 -1.03 -0.66 -1.06 -0.61 -1.09 -0.56 -1.12 -0.51 -1.15 -0.45 -1.18 -0.4 -1.2 -0.34 -1.23 -0.28 -1.25 -0.22 -1.27 -0.16 -1.29 -0.1 -1.31 -0.03 0 -9.77 1.81 0.05 1.79 0.14 1.76 0.22 1.73 0.31 1.7 0.39 1.67 0.47 1.64 0.55 1.6 0.63 1.56 0.71 1.52 0.78 1.47 0.85 1.43 0.91 1.38 0.98 1.33 1.04 1.28 1.1 1.22 1.16 1.16 1.22 1.11 1.28 1.04 1.33 0.98 1.38 0.91 1.43 0.85 1.47 0.78 1.52 0.71 1.56 0.63 1.6 0.55 1.64 0.47 1.67 0.39 1.7 0.31 1.73 0.22 1.76 0.14 1.79 0.05 1.81 0 0zm-35.18 35.18l0 -9.77 0 0 1.31 -0.03 1.29 -0.1 1.27 -0.16 1.25 -0.22 1.23 -0.28 1.2 -0.34 1.18 -0.4 1.15 -0.45 1.12 -0.51 1.09 -0.56 1.06 -0.61 1.03 -0.66 1 -0.71 0.96 -0.75 0.92 -0.8 0.88 -0.84 0.84 -0.88 0.8 -0.92 0.76 -0.96 0.71 -1 0.66 -1.03 0.61 -1.06 0.56 -1.09 0.51 -1.12 0.45 -1.15 0.4 -1.18 0.34 -1.2 0.28 -1.23 0.22 -1.25 0.16 -1.27 0.1 -1.29 0.03 -1.31 9.77 0 -0.05 1.81 -0.14 1.79 -0.22 1.76 -0.31 1.73 -0.39 1.7 -0.47 1.67 -0.55 1.64 -0.63 1.6 -0.71 1.56 -0.78 1.52 -0.85 1.47 -0.91 1.43 -0.98 1.38 -1.04 1.33 -1.11 1.28 -1.16 1.22 -1.22 1.16 -1.28 1.1 -1.33 1.04 -1.38 0.98 -1.43 0.91 -1.47 0.85 -1.52 0.78 -1.56 0.71 -1.6 0.63 -1.64 0.55 -1.67 0.47 -1.7 0.39 -1.73 0.31 -1.76 0.22 -1.79 0.14 -1.81 0.05 0 0zm-35.18 -35.18l9.77 0 0 0 0.03 1.31 0.1 1.29 0.16 1.27 0.22 1.25 0.28 1.23 0.34 1.2 0.4 1.18 0.45 1.15 0.51 1.12 0.56 1.09 0.61 1.06 0.66 1.03 0.71 1 0.76 0.96 0.8 0.92 0.84 0.88 0.88 0.84 0.92 0.8 0.96 0.75 1 0.71 1.03 0.66 1.06 0.61 1.09 0.56 1.12 0.51 1.15 0.45 1.18 0.4 1.2 0.34 1.23 0.28 1.25 0.22 1.27 0.16 1.29 0.1 1.31 0.03 0 9.77 -1.81 -0.05 -1.79 -0.14 -1.76 -0.22 -1.73 -0.31 -1.7 -0.39 -1.67 -0.47 -1.64 -0.55 -1.6 -0.63 -1.56 -0.71 -1.52 -0.78 -1.47 -0.85 -1.43 -0.91 -1.38 -0.98 -1.33 -1.04 -1.28 -1.1 -1.22 -1.16 -1.16 -1.22 -1.11 -1.28 -1.04 -1.33 -0.98 -1.38 -0.91 -1.43 -0.85 -1.47 -0.78 -1.52 -0.71 -1.56 -0.63 -1.6 -0.55 -1.64 -0.47 -1.67 -0.39 -1.7 -0.31 -1.73 -0.22 -1.76 -0.14 -1.79 -0.05 -1.81 0 0zm35.18 -35.18l0 9.77 0 0 -1.31 0.03 -1.29 0.1 -1.27 0.16 -1.25 0.22 -1.23 0.28 -1.2 0.34 -1.18 0.4 -1.15 0.45 -1.12 0.51 -1.09 0.56 -1.06 0.61 -1.03 0.66 -1 0.71 -0.96 0.75 -0.92 0.8 -0.88 0.84 -0.84 0.88 -0.8 0.92 -0.76 0.96 -0.71 1 -0.66 1.03 -0.61 1.06 -0.56 1.09 -0.51 1.12 -0.45 1.15 -0.4 1.18 -0.34 1.2 -0.28 1.23 -0.22 1.25 -0.16 1.27 -0.1 1.29 -0.03 1.31 -9.77 0 0.05 -1.81 0.14 -1.79 0.22 -1.76 0.31 -1.73 0.39 -1.7 0.47 -1.67 0.55 -1.64 0.63 -1.6 0.71 -1.56 0.78 -1.52 0.85 -1.47 0.91 -1.43 0.98 -1.38 1.04 -1.33 1.11 -1.28 1.16 -1.22 1.22 -1.16 1.28 -1.1 1.33 -1.04 1.38 -0.98 1.43 -0.91 1.47 -0.85 1.52 -0.78 1.56 -0.71 1.6 -0.63 1.64 -0.55 1.67 -0.47 1.7 -0.39 1.73 -0.31 1.76 -0.22 1.79 -0.14 1.81 -0.05 0 0z"/>
   </g>
  </g>
 </g>
</svg>
