<?xml version="1.0" encoding="UTF-16"?>
<!DOCTYPE svg PUBLIC "-//W3C//DTD SVG 1.1//EN" "http://www.w3.org/Graphics/SVG/1.1/DTD/svg11.dtd">
<!-- Creator: CorelDRAW -->
<svg xmlns="http://www.w3.org/2000/svg" xml:space="preserve" width="2.2082in" height="2.49166in" version="1.1" style="shape-rendering:geometricPrecision; text-rendering:geometricPrecision; image-rendering:optimizeQuality; fill-rule:evenodd; clip-rule:evenodd"
viewBox="0 0 2208.2 2491.66"
 xmlns:xlink="http://www.w3.org/1999/xlink"
 xmlns:xodm="http://www.corel.com/coreldraw/odm/2003">
 <defs>
  <style type="text/css">
   <![CDATA[
    .str0 {stroke:#997400;stroke-width:53.33;stroke-miterlimit:22.9256}
    .fil2 {fill:none}
    .fil1 {fill:#997400}
    .fil0 {fill:#997400;fill-rule:nonzero;fill-opacity:0.121569}
    .fil10 {fill:#997400;fill-rule:nonzero;fill-opacity:0.301961}
    .fil7 {fill:#997400;fill-rule:nonzero;fill-opacity:0.400000}
    .fil9 {fill:#997400;fill-rule:nonzero;fill-opacity:0.490196}
    .fil6 {fill:#997400;fill-rule:nonzero;fill-opacity:0.501961}
    .fil8 {fill:#997400;fill-rule:nonzero;fill-opacity:0.600000}
    .fil5 {fill:#997400;fill-rule:nonzero;fill-opacity:0.701961}
    .fil4 {fill:#997400;fill-rule:nonzero;fill-opacity:0.901961}
    .fil3 {fill:#997400;fill-rule:nonzero}
   ]]>
  </style>
 </defs>
 <g id="Layer_x0020_1">
  <metadata id="CorelCorpID_0Corel-Layer"/>
  <g id="_1424871700400">
   <g>
    <polygon class="fil0" points="26.7,1495.58 2181.5,1495.58 2181.5,1555.58 26.7,1555.58 "/>
    <path class="fil0" d="M252.8 26.67l1702.6 0c124.87,0 226.13,77.67 226.13,173.4l0 2091.54c0,95.73 -101.27,173.4 -226.13,173.4l-1702.6 0c-124.87,0 -226.13,-77.67 -226.13,-173.4l0 -2091.54c0,-95.73 101.27,-173.4 226.13,-173.4z"/>
    <polygon class="fil0" points="26.7,730.07 2181.5,730.07 2181.5,790.07 26.7,790.07 "/>
    <path class="fil0" d="M201 239.3l113.4 0c39.17,0 70.9,31.73 70.9,70.9l0 255.17c0,39.17 -31.73,70.9 -70.87,70.9l-113.43 0c-39.13,0 -70.87,-31.73 -70.87,-70.9l0 -255.17c0,-39.17 31.73,-70.9 70.87,-70.9z"/>
    <path class="fil0" d="M512.87 239.3l113.43 0c39.17,0 70.9,31.73 70.9,70.9l-0.03 255.17c0.03,39.17 -31.7,70.9 -70.87,70.9l-113.43 0c-39.13,0 -70.87,-31.73 -70.87,-70.9l0 -255.17c0,-39.17 31.73,-70.9 70.9,-70.9l-0.04 0z"/>
    <path class="fil0" d="M824.76 239.3l113.4 0c39.17,0 70.9,31.73 70.9,70.9l0 255.17c0,39.17 -31.73,70.9 -70.87,70.9l-113.43 0c-39.13,0 -70.87,-31.73 -70.87,-70.9l-0.03 -255.17c0.03,-39.17 31.76,-70.9 70.9,-70.9z"/>
    <path class="fil0" d="M1335.1 239.3l113.43 0c39.17,0 70.9,31.73 70.9,70.9l-0.03 255.17c0.03,39.17 -31.7,70.9 -70.87,70.9l-113.43 0c-39.13,0 -70.87,-31.73 -70.87,-70.9l0 -255.17c0,-39.17 31.73,-70.9 70.9,-70.9l-0.03 0z"/>
    <path class="fil0" d="M1647 239.3l113.4 0c39.17,0 70.9,31.73 70.9,70.9l0 255.17c0,39.17 -31.73,70.9 -70.87,70.9l-113.43 0c-39.13,0 -70.87,-31.73 -70.87,-70.9l-0.03 -255.17c0.03,-39.17 31.77,-70.9 70.9,-70.9l-0 0z"/>
    <path class="fil0" d="M267.67 1004.83l113.4 0c39.17,0 70.9,31.73 70.9,70.9l0 255.17c0,39.13 -31.73,70.87 -70.87,70.87l-113.43 0c-39.13,0 -70.87,-31.73 -70.87,-70.87l0 -255.17c0,-39.17 31.73,-70.9 70.87,-70.9z"/>
    <path class="fil0" d="M579.54 1004.83l113.43 0c39.17,0 70.9,31.73 70.9,70.9l-0.03 255.17c0.03,39.13 -31.7,70.87 -70.87,70.87l-113.43 0c-39.13,0 -70.87,-31.73 -70.87,-70.87l0 -255.17c0,-39.17 31.73,-70.9 70.9,-70.9l-0.04 0z"/>
    <path class="fil0" d="M1345.07 1004.83l113.4 0c39.17,0 70.93,31.73 70.93,70.9l-0.03 255.17c0.03,39.13 -31.73,70.87 -70.87,70.87l-113.43 0c-39.13,0 -70.87,-31.73 -70.87,-70.87l0 -255.17c0,-39.17 31.73,-70.9 70.9,-70.9l-0.04 0z"/>
    <path class="fil0" d="M1656.96 1004.83l113.4 0c39.17,0 70.9,31.73 70.9,70.9l-0.03 255.17c0.03,39.13 -31.7,70.87 -70.87,70.87l-113.4 0c-39.13,0 -70.87,-31.73 -70.87,-70.87l-0.04 -255.17c0.04,-39.17 31.77,-70.9 70.9,-70.9l-0 0z"/>
    <path class="fil0" d="M395.27 1742l1474.33 0c78.3,0 141.8,63.5 141.8,141.77l-0.04 226.83c0.04,78.26 -63.46,141.73 -141.73,141.73l-1474.37 0.03c-78.27,-0.03 -141.77,-63.5 -141.77,-141.76l-0.03 -226.83c0.03,-78.27 63.53,-141.77 141.8,-141.77z"/>
    <path class="fil0" d="M437.77 1883.77l368.6 0c23.5,0 42.57,19.04 42.57,42.53l-0.04 0c0.04,23.5 -19.03,42.54 -42.5,42.54l-368.63 0c-23.47,0 -42.5,-19.04 -42.5,-42.54 0,-23.5 19.03,-42.53 42.53,-42.53l-0.03 0z"/>
    <path class="fil0" d="M1004.83 1883.77l652.13 0c23.5,0 42.53,19.04 42.53,42.53 0,23.5 -19.03,42.54 -42.53,42.54l-652.13 0c-23.47,0 -42.5,-19.04 -42.5,-42.54l-0.03 0c0.03,-23.5 19.06,-42.53 42.56,-42.53l-0.03 0z"/>
    <path class="fil0" d="M437.77 2053.9l992.37 0c23.5,0 42.53,19.04 42.53,42.54 0,23.46 -19.03,42.53 -42.53,42.53l-992.37 0c-23.47,0 -42.5,-19.07 -42.5,-42.53 0,-23.5 19.03,-42.54 42.53,-42.54l-0.03 0z"/>
   </g>
   <g>
    <rect class="fil1" x="26.7" y="1495.58" width="2154.8" height="60"/>
    <path class="fil2 str0" d="M252.8 26.67l1702.6 0c124.87,0 226.13,77.67 226.13,173.4l0 2091.54c0,95.73 -101.27,173.4 -226.13,173.4l-1702.6 0c-124.87,0 -226.13,-77.67 -226.13,-173.4l0 -2091.54c0,-95.73 101.27,-173.4 226.13,-173.4z"/>
    <g>
     <polygon class="fil3" points="1077.43,1525.58 1077.43,26.67 1130.76,26.67 1130.76,1525.58 "/>
    </g>
    <rect class="fil1" x="26.7" y="730.07" width="2154.8" height="60"/>
    <path class="fil4" d="M201 239.3l113.4 0c39.17,0 70.9,31.73 70.9,70.9l0 255.17c0,39.17 -31.73,70.9 -70.87,70.9l-113.43 0c-39.13,0 -70.87,-31.73 -70.87,-70.9l0 -255.17c0,-39.17 31.73,-70.9 70.87,-70.9z"/>
    <path class="fil5" d="M512.87 239.3l113.43 0c39.17,0 70.9,31.73 70.9,70.9l-0.03 255.17c0.03,39.17 -31.7,70.9 -70.87,70.9l-113.43 0c-39.13,0 -70.87,-31.73 -70.87,-70.9l0 -255.17c0,-39.17 31.73,-70.9 70.9,-70.9l-0.04 0 0 0z"/>
    <path class="fil6" d="M824.76 239.3l113.4 0c39.17,0 70.9,31.73 70.9,70.9l0 255.17c0,39.17 -31.73,70.9 -70.87,70.9l-113.43 0c-39.13,0 -70.87,-31.73 -70.87,-70.9l-0.03 -255.17c0.03,-39.17 31.76,-70.9 70.9,-70.9l0 0 0 0z"/>
    <path class="fil4" d="M1335.1 239.3l113.43 0c39.17,0 70.9,31.73 70.9,70.9l-0.03 255.17c0.03,39.17 -31.7,70.9 -70.87,70.9l-113.43 0c-39.13,0 -70.87,-31.73 -70.87,-70.9l0 -255.17c0,-39.17 31.73,-70.9 70.9,-70.9l-0.03 0 0 0z"/>
    <path class="fil7" d="M1647 239.3l113.4 0c39.17,0 70.9,31.73 70.9,70.9l0 255.17c0,39.17 -31.73,70.9 -70.87,70.9l-113.43 0c-39.13,0 -70.87,-31.73 -70.87,-70.9l-0.03 -255.17c0.03,-39.17 31.77,-70.9 70.9,-70.9l0 0 -0 0z"/>
    <path class="fil8" d="M267.67 1004.83l113.4 0c39.17,0 70.9,31.73 70.9,70.9l0 255.17c0,39.13 -31.73,70.87 -70.87,70.87l-113.43 0c-39.13,0 -70.87,-31.73 -70.87,-70.87l0 -255.17c0,-39.17 31.73,-70.9 70.87,-70.9z"/>
    <path class="fil4" d="M579.54 1004.83l113.43 0c39.17,0 70.9,31.73 70.9,70.9l-0.03 255.17c0.03,39.13 -31.7,70.87 -70.87,70.87l-113.43 0c-39.13,0 -70.87,-31.73 -70.87,-70.87l0 -255.17c0,-39.17 31.73,-70.9 70.9,-70.9l-0.04 0 0 0z"/>
    <path class="fil5" d="M1345.07 1004.83l113.4 0c39.17,0 70.93,31.73 70.93,70.9l-0.03 255.17c0.03,39.13 -31.73,70.87 -70.87,70.87l-113.43 0c-39.13,0 -70.87,-31.73 -70.87,-70.87l0 -255.17c0,-39.17 31.73,-70.9 70.9,-70.9l-0.04 0 0 0z"/>
    <path class="fil6" d="M1656.96 1004.83l113.4 0c39.17,0 70.9,31.73 70.9,70.9l-0.03 255.17c0.03,39.13 -31.7,70.87 -70.87,70.87l-113.4 0c-39.13,0 -70.87,-31.73 -70.87,-70.87l-0.04 -255.17c0.04,-39.17 31.77,-70.9 70.9,-70.9l0 0 -0 0z"/>
    <path class="fil9" d="M395.27 1742l1474.33 0c78.3,0 141.8,63.5 141.8,141.77l-0.04 226.83c0.04,78.26 -63.46,141.73 -141.73,141.73l-1474.37 0.03c-78.27,-0.03 -141.77,-63.5 -141.77,-141.76l-0.03 -226.83c0.03,-78.27 63.53,-141.77 141.8,-141.77l0 0 0 0z"/>
    <path class="fil5" d="M437.77 1883.77l368.6 0c23.5,0 42.57,19.04 42.57,42.53l-0.04 0c0.04,23.5 -19.03,42.54 -42.5,42.54l-368.63 0c-23.47,0 -42.5,-19.04 -42.5,-42.54l0 0c0,-23.5 19.03,-42.53 42.53,-42.53l-0.03 0 0 0z"/>
    <path class="fil7" d="M1004.83 1883.77l652.13 0c23.5,0 42.53,19.04 42.53,42.53l0 0c0,23.5 -19.03,42.54 -42.53,42.54l-652.13 0c-23.47,0 -42.5,-19.04 -42.5,-42.54l-0.03 0c0.03,-23.5 19.06,-42.53 42.56,-42.53l-0.03 0 0 0z"/>
    <path class="fil10" d="M437.77 2053.9l992.37 0c23.5,0 42.53,19.04 42.53,42.54l0 0c0,23.46 -19.03,42.53 -42.53,42.53l-992.37 0c-23.47,0 -42.5,-19.07 -42.5,-42.53l0 0c0,-23.5 19.03,-42.54 42.53,-42.54l-0.03 0 0 0z"/>
   </g>
  </g>
 </g>
</svg>
