<?xml version="1.0" encoding="UTF-16"?>
<!DOCTYPE svg PUBLIC "-//W3C//DTD SVG 1.1//EN" "http://www.w3.org/Graphics/SVG/1.1/DTD/svg11.dtd">
<!-- Creator: CorelDRAW -->
<svg xmlns="http://www.w3.org/2000/svg" xml:space="preserve" width="2.73916in" height="2.4538in" version="1.1" style="shape-rendering:geometricPrecision; text-rendering:geometricPrecision; image-rendering:optimizeQuality; fill-rule:evenodd; clip-rule:evenodd"
viewBox="0 0 2739.17 2453.81"
 xmlns:xlink="http://www.w3.org/1999/xlink"
 xmlns:xodm="http://www.corel.com/coreldraw/odm/2003">
 <defs>
  <style type="text/css">
   <![CDATA[
    .fil0 {fill:#997400;fill-rule:nonzero}
    .fil1 {fill:#997400;fill-rule:nonzero;fill-opacity:0.121569}
    .fil2 {fill:#997400;fill-rule:nonzero;fill-opacity:0.501961}
   ]]>
  </style>
 </defs>
 <g id="Layer_x0020_1">
  <metadata id="CorelCorpID_0Corel-Layer"/>
  <g id="_2209220662096">
   <g>
    <path class="fil0" d="M84.05 830.66c-27.4,15.12 -61.87,5.16 -76.99,-22.24 -15.12,-27.4 -5.16,-61.87 22.24,-76.99l54.75 99.24zm1312.91 -724.36l-1312.91 724.36 -54.75 -99.24 1312.91 -724.36 54.75 0 0 99.24zm-54.75 -99.24c27.4,-15.12 61.87,-5.16 76.99,22.24 15.12,27.4 5.16,61.87 -22.24,76.99l-54.75 -99.24zm1312.9 823.6l-1312.9 -724.36 54.75 -99.24 1312.9 724.36 -54.75 99.24zm54.75 -99.24c27.4,15.12 37.36,49.59 22.24,76.99 -15.12,27.4 -49.59,37.36 -76.99,22.24l54.75 -99.24z"/>
   </g>
   <path class="fil1" d="M1025.41 1735.01l688.34 0c25.34,0 45.89,20.55 45.89,45.89l0 596.56c0,25.33 -20.55,45.88 -45.89,45.88l-688.34 0c-25.34,-0 -45.89,-20.55 -45.89,-45.89l-0 -596.55c0,-25.34 20.55,-45.89 45.89,-45.89l0 -0z"/>
   <path class="fil0" d="M1713.75 1765.47l-688.34 0 0 -60.92 688.34 0 0 0 0 60.92zm0 -60.92c16.82,0 30.46,13.64 30.46,30.46 0,16.82 -13.64,30.46 -30.46,30.46l0 -60.92 0 0zm76.35 76.35l-60.92 0 0 0 -0.02 -0.83 -0.06 -0.79 -0.1 -0.78 -0.13 -0.76 -0.17 -0.73 -0.2 -0.72 -0.24 -0.71 -0.28 -0.7 -0.3 -0.67 -0.34 -0.66 -0.37 -0.65 -0.39 -0.62 -0.43 -0.61 -0.46 -0.58 -0.49 -0.57 -0.52 -0.54 -0.55 -0.52 -0.56 -0.49 -0.59 -0.46 -0.61 -0.43 -0.62 -0.4 -0.65 -0.37 -0.67 -0.34 -0.67 -0.31 -0.69 -0.27 -0.71 -0.24 -0.72 -0.2 -0.74 -0.17 -0.75 -0.13 -0.78 -0.1 -0.79 -0.06 -0.83 -0.02 0 -60.92 3.89 0.09 3.87 0.3 3.81 0.49 3.76 0.67 3.7 0.85 3.64 1.03 3.56 1.2 3.48 1.37 3.39 1.54 3.3 1.69 3.19 1.83 3.1 1.98 2.99 2.13 2.88 2.26 2.76 2.39 2.65 2.52 2.52 2.64 2.4 2.77 2.26 2.88 2.13 2.99 1.99 3.11 1.83 3.19 1.69 3.3 1.54 3.39 1.37 3.47 1.2 3.56 1.04 3.64 0.86 3.71 0.67 3.76 0.49 3.81 0.3 3.87 0.09 3.9 0 0 0 0.01zm0 0c0,16.82 -13.64,30.46 -30.46,30.46 -16.82,0 -30.46,-13.63 -30.46,-30.46l60.92 0 0 0zm-60.92 596.56l0 -596.56 60.92 0 0 596.56 0 0 -60.92 0zm60.92 0c0,16.82 -13.64,30.46 -30.46,30.46 -16.82,0 -30.46,-13.64 -30.46,-30.46l60.92 0 0 0zm-76.35 76.35l0 -60.93 0 0 0.83 -0.02 0.79 -0.06 0.78 -0.1 0.76 -0.13 0.73 -0.17 0.72 -0.2 0.71 -0.24 0.7 -0.28 0.67 -0.3 0.66 -0.34 0.65 -0.37 0.62 -0.4 0.61 -0.43 0.58 -0.46 0.57 -0.49 0.55 -0.52 0.51 -0.54 0.49 -0.56 0.46 -0.59 0.43 -0.6 0.4 -0.63 0.37 -0.65 0.34 -0.67 0.3 -0.67 0.27 -0.69 0.24 -0.71 0.21 -0.72 0.17 -0.73 0.13 -0.75 0.1 -0.78 0.06 -0.79 0.02 -0.82 60.93 0 -0.1 3.89 -0.3 3.87 -0.48 3.81 -0.67 3.76 -0.86 3.71 -1.03 3.63 -1.2 3.56 -1.37 3.48 -1.54 3.39 -1.69 3.29 -1.83 3.19 -1.98 3.1 -2.13 2.99 -2.26 2.87 -2.39 2.77 -2.53 2.65 -2.64 2.52 -2.76 2.39 -2.88 2.26 -2.99 2.13 -3.1 1.99 -3.19 1.83 -3.3 1.69 -3.39 1.54 -3.47 1.37 -3.56 1.2 -3.63 1.04 -3.71 0.85 -3.76 0.67 -3.81 0.49 -3.87 0.3 -3.9 0.09 0 0 -0 0.01zm0 0c-16.82,0 -30.46,-13.64 -30.46,-30.46 0,-16.82 13.64,-30.46 30.46,-30.46l0 60.92 0 0zm-688.34 -60.92l688.34 -0 0 60.93 -688.34 0 -0 0 0 -60.93zm0 60.92c-16.82,0 -30.46,-13.64 -30.46,-30.46 0,-16.82 13.64,-30.46 30.46,-30.46l0 60.93 0 -0zm-76.35 -76.35l60.93 0 0 0 0.02 0.83 0.06 0.79 0.1 0.78 0.13 0.76 0.17 0.73 0.2 0.73 0.24 0.7 0.28 0.69 0.3 0.68 0.34 0.66 0.37 0.65 0.4 0.62 0.43 0.6 0.46 0.59 0.49 0.56 0.52 0.54 0.54 0.52 0.56 0.49 0.59 0.46 0.62 0.44 0.62 0.4 0.63 0.37 0.67 0.34 0.68 0.31 0.69 0.27 0.7 0.24 0.72 0.2 0.74 0.17 0.75 0.13 0.76 0.1 0.8 0.06 0.83 0.02 -0 60.92 -3.89 -0.1 -3.86 -0.3 -3.83 -0.49 -3.77 -0.67 -3.7 -0.85 -3.64 -1.03 -3.56 -1.2 -3.48 -1.37 -3.39 -1.54 -3.29 -1.68 -3.2 -1.85 -3.1 -1.99 -2.98 -2.12 -2.87 -2.26 -2.77 -2.39 -2.65 -2.52 -2.52 -2.65 -2.4 -2.77 -2.26 -2.87 -2.13 -2.99 -1.99 -3.11 -1.83 -3.19 -1.69 -3.3 -1.54 -3.39 -1.37 -3.48 -1.2 -3.56 -1.03 -3.63 -0.86 -3.71 -0.67 -3.76 -0.48 -3.81 -0.3 -3.87 -0.09 -3.9 0 0 -0.01 -0.01zm0 0c0,-16.82 13.64,-30.46 30.46,-30.46 16.82,0 30.46,13.64 30.46,30.46l-60.92 0 0 0zm60.92 -596.55l0 596.55 -60.93 0 0 -596.55 0 -0 60.92 0zm-60.92 0c0,-16.82 13.64,-30.46 30.46,-30.46 16.82,0 30.46,13.64 30.46,30.46l-60.92 0 0 0zm76.35 -76.35l0 60.92 0 0 -0.83 0.02 -0.79 0.06 -0.78 0.1 -0.76 0.13 -0.73 0.17 -0.72 0.2 -0.71 0.24 -0.7 0.27 -0.67 0.31 -0.66 0.34 -0.64 0.37 -0.63 0.41 -0.61 0.43 -0.59 0.46 -0.56 0.48 -0.54 0.51 -0.52 0.55 -0.49 0.57 -0.46 0.58 -0.43 0.6 -0.41 0.63 -0.37 0.65 -0.34 0.66 -0.3 0.67 -0.27 0.7 -0.24 0.71 -0.2 0.72 -0.17 0.74 -0.13 0.75 -0.1 0.76 -0.06 0.8 -0.02 0.83 -60.92 -0.01 0.1 -3.89 0.3 -3.87 0.48 -3.83 0.68 -3.76 0.85 -3.7 1.03 -3.63 1.2 -3.56 1.37 -3.47 1.54 -3.39 1.69 -3.3 1.84 -3.2 1.98 -3.1 2.13 -2.99 2.27 -2.89 2.39 -2.76 2.52 -2.63 2.65 -2.53 2.77 -2.39 2.87 -2.26 2.99 -2.13 3.09 -1.98 3.2 -1.84 3.3 -1.69 3.39 -1.53 3.48 -1.37 3.56 -1.2 3.63 -1.03 3.71 -0.85 3.76 -0.67 3.81 -0.48 3.87 -0.3 3.9 -0.09 0 0 0 -0zm0 0c16.82,0 30.46,13.64 30.46,30.46 0,16.82 -13.64,30.46 -30.46,30.46l0 -60.92 0 0z"/>
   <path class="fil2" d="M979.53 2063.75c-16.82,0 -30.46,-13.64 -30.46,-30.46 0,-16.82 13.64,-30.46 30.46,-30.46l0 60.92 0 0zm780.12 0l-780.12 0 0 -60.93 780.12 0 0 60.93zm0 -60.93c16.82,0 30.46,13.64 30.46,30.46 0,16.82 -13.64,30.46 -30.46,30.46l0 -60.92 0 0z"/>
   <path class="fil2" d="M1339.12 1735.01c0,-16.82 13.64,-30.46 30.46,-30.46 16.82,0 30.46,13.64 30.46,30.46l-60.93 0 0 0zm0 298.28l0 -298.28 60.92 0 0 298.28 -60.92 0zm60.92 0c0,16.82 -13.64,30.46 -30.46,30.46 -16.82,0 -30.46,-13.64 -30.46,-30.46l60.92 0 0 0z"/>
   <path class="fil1" d="M228.08 1735.01l688.34 0c25.34,0 45.89,20.55 45.89,45.89l0 596.56c-0,25.33 -20.55,45.88 -45.89,45.88l-688.34 0c-25.33,-0 -45.88,-20.55 -45.88,-45.89l-0 -596.55c0,-25.34 20.55,-45.89 45.89,-45.89l-0 -0z"/>
   <path class="fil0" d="M916.43 1765.47l-688.34 0 0 -60.92 688.34 0 0 0 0 60.92zm0 -60.92c16.82,0 30.46,13.64 30.46,30.46 0,16.82 -13.64,30.46 -30.46,30.46l0 -60.92 0 0zm76.34 76.35l-60.92 0 0 0 -0.02 -0.83 -0.06 -0.79 -0.1 -0.78 -0.14 -0.76 -0.17 -0.73 -0.2 -0.72 -0.24 -0.71 -0.28 -0.7 -0.3 -0.67 -0.34 -0.66 -0.37 -0.65 -0.4 -0.62 -0.43 -0.61 -0.46 -0.58 -0.49 -0.57 -0.52 -0.55 -0.54 -0.52 -0.56 -0.49 -0.59 -0.46 -0.61 -0.43 -0.62 -0.4 -0.65 -0.37 -0.66 -0.34 -0.67 -0.3 -0.69 -0.27 -0.71 -0.24 -0.72 -0.2 -0.74 -0.17 -0.75 -0.13 -0.78 -0.1 -0.79 -0.06 -0.83 -0.02 0 -60.92 3.89 0.1 3.87 0.29 3.81 0.49 3.76 0.67 3.71 0.85 3.64 1.04 3.56 1.2 3.47 1.37 3.4 1.54 3.3 1.69 3.19 1.83 3.1 1.98 2.99 2.13 2.87 2.26 2.77 2.4 2.65 2.52 2.52 2.64 2.4 2.76 2.26 2.88 2.13 2.99 1.99 3.1 1.83 3.19 1.69 3.3 1.54 3.39 1.37 3.47 1.2 3.56 1.04 3.63 0.85 3.71 0.67 3.76 0.49 3.81 0.29 3.87 0.1 3.9 0 0 0 0.01zm0 0c0,16.82 -13.64,30.46 -30.46,30.46 -16.82,0 -30.46,-13.63 -30.46,-30.46l60.93 0 -0 0zm-60.92 596.56l-0 -596.56 60.92 0 0 596.56 0 0 -60.92 -0zm60.92 0c0,16.82 -13.64,30.46 -30.46,30.46 -16.82,0 -30.46,-13.64 -30.46,-30.46l60.92 0 0 0zm-76.35 76.35l0 -60.93 0 0 0.82 -0.02 0.79 -0.06 0.78 -0.1 0.75 -0.13 0.73 -0.17 0.72 -0.2 0.71 -0.24 0.7 -0.28 0.67 -0.3 0.66 -0.34 0.65 -0.37 0.62 -0.4 0.61 -0.43 0.59 -0.46 0.56 -0.49 0.54 -0.52 0.52 -0.54 0.49 -0.56 0.46 -0.59 0.44 -0.61 0.4 -0.62 0.37 -0.64 0.34 -0.66 0.31 -0.68 0.27 -0.69 0.24 -0.71 0.2 -0.72 0.17 -0.74 0.13 -0.75 0.1 -0.76 0.06 -0.8 0.02 -0.83 60.93 0 -0.1 3.9 -0.3 3.86 -0.48 3.83 -0.68 3.76 -0.85 3.7 -1.03 3.63 -1.2 3.56 -1.37 3.48 -1.54 3.39 -1.69 3.3 -1.84 3.2 -1.99 3.1 -2.12 2.99 -2.26 2.87 -2.39 2.77 -2.52 2.65 -2.65 2.52 -2.77 2.4 -2.87 2.26 -2.99 2.13 -3.11 1.99 -3.19 1.83 -3.3 1.69 -3.39 1.54 -3.47 1.37 -3.56 1.2 -3.64 1.03 -3.71 0.85 -3.76 0.67 -3.81 0.48 -3.87 0.3 -3.9 0.09 0 0 0 0zm0 0c-16.82,0 -30.46,-13.64 -30.46,-30.46 0,-16.82 13.64,-30.46 30.46,-30.46l0 60.92 0 0zm-688.34 -60.92l688.34 -0 0 60.93 -688.34 0 0 0 0 -60.93zm0 60.92c-16.82,0 -30.46,-13.64 -30.46,-30.46 0,-16.82 13.64,-30.46 30.46,-30.46l0 60.93 0 -0zm-76.34 -76.35l60.92 0 0 0 0.02 0.83 0.06 0.79 0.1 0.78 0.14 0.76 0.17 0.73 0.2 0.72 0.24 0.71 0.28 0.7 0.3 0.67 0.34 0.66 0.38 0.65 0.39 0.62 0.43 0.6 0.46 0.59 0.49 0.56 0.52 0.54 0.54 0.52 0.57 0.49 0.59 0.46 0.61 0.44 0.63 0.4 0.64 0.37 0.66 0.34 0.68 0.31 0.69 0.27 0.71 0.24 0.72 0.2 0.74 0.17 0.75 0.13 0.76 0.1 0.79 0.06 0.83 0.02 -0.01 60.92 -3.89 -0.1 -3.86 -0.3 -3.83 -0.49 -3.77 -0.67 -3.7 -0.85 -3.63 -1.04 -3.56 -1.2 -3.48 -1.37 -3.39 -1.54 -3.3 -1.69 -3.2 -1.84 -3.1 -1.99 -2.99 -2.12 -2.87 -2.26 -2.77 -2.39 -2.65 -2.52 -2.52 -2.65 -2.4 -2.77 -2.26 -2.87 -2.13 -2.99 -1.99 -3.11 -1.83 -3.19 -1.69 -3.3 -1.54 -3.39 -1.37 -3.47 -1.2 -3.56 -1.03 -3.63 -0.86 -3.71 -0.67 -3.76 -0.49 -3.81 -0.3 -3.87 -0.09 -3.9 0 0 0 -0zm0 0c0,-16.82 13.64,-30.46 30.46,-30.46 16.82,0 30.46,13.64 30.46,30.46l-60.93 0 0 0zm60.92 -596.55l0 596.55 -60.92 0 -0 -596.55 0 -0 60.92 0zm-60.92 0c0,-16.82 13.64,-30.46 30.46,-30.46 16.82,0 30.46,13.64 30.46,30.46l-60.92 0 0 0zm76.35 -76.35l0 60.92 0 0 -0.82 0.02 -0.79 0.06 -0.78 0.1 -0.75 0.13 -0.73 0.17 -0.72 0.2 -0.71 0.24 -0.7 0.28 -0.67 0.3 -0.66 0.34 -0.65 0.37 -0.63 0.4 -0.61 0.43 -0.59 0.46 -0.56 0.48 -0.54 0.51 -0.52 0.55 -0.49 0.56 -0.46 0.59 -0.44 0.61 -0.4 0.62 -0.37 0.64 -0.34 0.66 -0.31 0.67 -0.27 0.69 -0.24 0.71 -0.2 0.72 -0.17 0.74 -0.13 0.76 -0.1 0.76 -0.06 0.8 -0.02 0.83 -60.92 -0.01 0.1 -3.89 0.3 -3.87 0.49 -3.83 0.67 -3.76 0.85 -3.7 1.04 -3.63 1.2 -3.56 1.37 -3.48 1.54 -3.39 1.69 -3.29 1.84 -3.2 1.99 -3.1 2.12 -2.99 2.26 -2.88 2.39 -2.77 2.52 -2.63 2.65 -2.53 2.77 -2.39 2.87 -2.26 2.99 -2.13 3.1 -1.98 3.2 -1.83 3.3 -1.69 3.39 -1.54 3.47 -1.37 3.56 -1.2 3.64 -1.04 3.71 -0.85 3.76 -0.67 3.81 -0.49 3.87 -0.3 3.9 -0.09 0 0 0 0zm0 0c16.82,0 30.46,13.64 30.46,30.46 0,16.82 -13.64,30.46 -30.46,30.46l0 -60.92 0 0z"/>
   <path class="fil2" d="M182.2 2063.75c-16.82,0 -30.46,-13.64 -30.46,-30.46 0,-16.82 13.64,-30.46 30.46,-30.46l0 60.92 0 0zm780.12 0l-780.12 0 0 -60.93 780.12 0 0 60.93zm0 -60.93c16.82,0 30.46,13.64 30.46,30.46 0,16.82 -13.64,30.46 -30.46,30.46l0 -60.92 0 0z"/>
   <path class="fil2" d="M541.8 1735.01c0,-16.82 13.64,-30.46 30.46,-30.46 16.82,0 30.46,13.64 30.46,30.46l-60.92 0 0 0zm0 298.28l0 -298.28 60.92 0 0 298.28 -60.92 0zm60.92 0c0,16.82 -13.64,30.46 -30.46,30.46 -16.82,0 -30.46,-13.64 -30.46,-30.46l60.92 0 -0 0z"/>
   <path class="fil1" d="M1822.75 1735.01l688.34 0c25.34,0 45.89,20.55 45.89,45.89l0 596.56c0,25.33 -20.55,45.88 -45.89,45.88l-688.34 0c-25.34,-0 -45.89,-20.55 -45.89,-45.89l-0 -596.55c0,-25.34 20.55,-45.89 45.89,-45.89l0 -0z"/>
   <path class="fil0" d="M2511.08 1765.47l-688.34 0 0 -60.92 688.34 0 0 0 0 60.92zm0 -60.92c16.82,0 30.46,13.64 30.46,30.46 0,16.82 -13.64,30.46 -30.46,30.46l0 -60.92 0 0zm76.35 76.35l-60.92 0 0 0 -0.02 -0.83 -0.06 -0.79 -0.1 -0.78 -0.13 -0.76 -0.17 -0.73 -0.2 -0.72 -0.24 -0.71 -0.28 -0.7 -0.3 -0.67 -0.34 -0.66 -0.37 -0.65 -0.4 -0.62 -0.43 -0.61 -0.46 -0.58 -0.49 -0.57 -0.52 -0.54 -0.55 -0.52 -0.56 -0.49 -0.59 -0.46 -0.6 -0.43 -0.63 -0.4 -0.65 -0.37 -0.67 -0.34 -0.67 -0.31 -0.69 -0.27 -0.71 -0.24 -0.72 -0.2 -0.73 -0.17 -0.75 -0.13 -0.78 -0.1 -0.79 -0.06 -0.83 -0.02 0 -60.92 3.9 0.09 3.87 0.3 3.82 0.49 3.76 0.67 3.7 0.85 3.64 1.03 3.56 1.2 3.48 1.37 3.39 1.54 3.29 1.69 3.19 1.83 3.1 1.98 2.99 2.13 2.88 2.26 2.77 2.39 2.64 2.52 2.52 2.64 2.39 2.77 2.26 2.88 2.13 2.99 1.98 3.11 1.83 3.19 1.69 3.3 1.54 3.39 1.37 3.47 1.2 3.56 1.03 3.64 0.86 3.71 0.67 3.76 0.48 3.81 0.3 3.87 0.09 3.9 0 0 0 0.01zm0 0c0,16.82 -13.64,30.46 -30.46,30.46 -16.82,0 -30.46,-13.63 -30.46,-30.46l60.92 0 -0 0zm-60.92 596.56l0 -596.56 60.92 0 0 596.56 0 0 -60.92 0zm60.92 0c0,16.82 -13.64,30.46 -30.46,30.46 -16.82,0 -30.46,-13.64 -30.46,-30.46l60.92 0 0 0zm-76.35 76.35l0 -60.93 0 0 0.83 -0.02 0.79 -0.06 0.78 -0.1 0.76 -0.13 0.73 -0.17 0.72 -0.2 0.71 -0.24 0.7 -0.28 0.67 -0.3 0.66 -0.34 0.65 -0.37 0.62 -0.4 0.61 -0.43 0.58 -0.46 0.57 -0.49 0.55 -0.52 0.51 -0.54 0.49 -0.56 0.46 -0.59 0.43 -0.6 0.4 -0.63 0.37 -0.65 0.34 -0.67 0.3 -0.67 0.27 -0.69 0.24 -0.71 0.21 -0.72 0.17 -0.73 0.13 -0.75 0.1 -0.78 0.06 -0.79 0.02 -0.82 60.93 0 -0.1 3.89 -0.29 3.87 -0.49 3.81 -0.67 3.76 -0.85 3.71 -1.04 3.63 -1.2 3.56 -1.37 3.48 -1.54 3.39 -1.69 3.29 -1.83 3.19 -1.98 3.1 -2.13 2.99 -2.26 2.87 -2.39 2.77 -2.53 2.65 -2.64 2.52 -2.76 2.39 -2.88 2.26 -2.99 2.13 -3.1 1.99 -3.19 1.83 -3.3 1.69 -3.39 1.54 -3.47 1.37 -3.56 1.2 -3.63 1.04 -3.71 0.85 -3.76 0.67 -3.81 0.49 -3.87 0.3 -3.9 0.09 0 0 -0 0.01zm0 0c-16.82,0 -30.46,-13.64 -30.46,-30.46 0,-16.82 13.64,-30.46 30.46,-30.46l0 60.92 0 0zm-688.33 -60.92l688.34 -0 0 60.93 -688.34 0 -0 0 0 -60.93zm0 60.92c-16.82,0 -30.46,-13.64 -30.46,-30.46 0,-16.82 13.64,-30.46 30.46,-30.46l0 60.93 0 -0zm-76.35 -76.35l60.92 0 0 0 0.02 0.83 0.06 0.79 0.1 0.78 0.13 0.76 0.17 0.73 0.2 0.73 0.24 0.7 0.27 0.69 0.3 0.68 0.34 0.66 0.37 0.65 0.4 0.62 0.43 0.6 0.46 0.59 0.49 0.56 0.52 0.54 0.54 0.52 0.56 0.49 0.59 0.46 0.62 0.44 0.62 0.4 0.63 0.37 0.67 0.34 0.68 0.31 0.69 0.27 0.7 0.24 0.72 0.2 0.74 0.17 0.75 0.13 0.76 0.1 0.8 0.06 0.83 0.02 -0 60.92 -3.89 -0.1 -3.86 -0.3 -3.83 -0.49 -3.77 -0.67 -3.7 -0.85 -3.64 -1.03 -3.56 -1.2 -3.48 -1.37 -3.39 -1.54 -3.29 -1.68 -3.2 -1.85 -3.1 -1.99 -2.98 -2.12 -2.87 -2.26 -2.77 -2.39 -2.65 -2.52 -2.52 -2.65 -2.4 -2.77 -2.26 -2.87 -2.13 -2.99 -1.99 -3.11 -1.83 -3.19 -1.69 -3.3 -1.54 -3.39 -1.37 -3.48 -1.2 -3.56 -1.03 -3.63 -0.86 -3.71 -0.67 -3.76 -0.49 -3.81 -0.3 -3.87 -0.09 -3.9 0 0 -0 -0.01zm0 0c0,-16.82 13.64,-30.46 30.46,-30.46 16.82,0 30.46,13.64 30.46,30.46l-60.92 0 0 0zm60.92 -596.55l0 596.55 -60.92 0 -0 -596.55 0 -0 60.92 0zm-60.92 0c0,-16.82 13.64,-30.46 30.46,-30.46 16.82,0 30.46,13.64 30.46,30.46l-60.92 0 0 0zm76.35 -76.35l0 60.92 0 0 -0.82 0.02 -0.79 0.06 -0.78 0.1 -0.76 0.13 -0.73 0.17 -0.72 0.2 -0.71 0.24 -0.7 0.27 -0.67 0.31 -0.66 0.34 -0.64 0.37 -0.63 0.41 -0.61 0.43 -0.59 0.46 -0.56 0.48 -0.54 0.51 -0.52 0.55 -0.49 0.57 -0.46 0.58 -0.43 0.6 -0.41 0.63 -0.37 0.65 -0.34 0.66 -0.3 0.67 -0.27 0.7 -0.24 0.71 -0.2 0.72 -0.17 0.74 -0.13 0.75 -0.1 0.76 -0.06 0.8 -0.02 0.83 -60.92 -0.01 0.1 -3.89 0.3 -3.87 0.48 -3.83 0.68 -3.76 0.85 -3.7 1.03 -3.63 1.2 -3.56 1.37 -3.47 1.54 -3.39 1.69 -3.3 1.84 -3.2 1.98 -3.1 2.13 -2.99 2.27 -2.89 2.39 -2.76 2.51 -2.63 2.65 -2.53 2.77 -2.39 2.87 -2.26 2.99 -2.13 3.09 -1.98 3.2 -1.84 3.3 -1.69 3.39 -1.53 3.48 -1.37 3.56 -1.2 3.63 -1.03 3.71 -0.85 3.76 -0.67 3.81 -0.48 3.87 -0.3 3.9 -0.09 0 0 0 -0zm0 0c16.82,0 30.46,13.64 30.46,30.46 0,16.82 -13.64,30.46 -30.46,30.46l0 -60.92 0 0z"/>
   <path class="fil2" d="M1776.85 2063.75c-16.82,0 -30.46,-13.64 -30.46,-30.46 0,-16.82 13.64,-30.46 30.46,-30.46l0 60.92 0 0zm780.12 0l-780.12 0 0 -60.93 780.12 0 0 60.93zm0 -60.93c16.82,0 30.46,13.64 30.46,30.46 0,16.82 -13.64,30.46 -30.46,30.46l0 -60.92 0 0z"/>
   <path class="fil2" d="M2136.45 1735.01c0,-16.82 13.64,-30.46 30.46,-30.46 16.82,0 30.46,13.64 30.46,30.46l-60.93 0 0 0zm0 298.28l0 -298.28 60.92 0 0 298.28 -60.92 0zm60.92 0c0,16.82 -13.64,30.46 -30.46,30.46 -16.82,0 -30.46,-13.64 -30.46,-30.46l60.92 0 0 0z"/>
   <path class="fil1" d="M1424.08 990.06l688.34 0c25.34,0 45.89,20.55 45.89,45.89l0 596.56c0,25.34 -20.55,45.89 -45.89,45.89l-688.34 0c-25.34,-0 -45.89,-20.55 -45.89,-45.89l-0 -596.56c0,-25.34 20.55,-45.89 45.89,-45.89l-0 -0z"/>
   <path class="fil0" d="M2112.42 1020.52l-688.34 0 0 -60.93 688.34 0 0 0 -0 60.93zm0 -60.92c16.82,0 30.46,13.64 30.46,30.46 0,16.82 -13.64,30.46 -30.46,30.46l0 -60.93 0 0zm76.34 76.35l-60.92 0 0 0 -0.02 -0.83 -0.06 -0.79 -0.1 -0.78 -0.13 -0.76 -0.17 -0.73 -0.2 -0.72 -0.24 -0.71 -0.28 -0.7 -0.3 -0.67 -0.34 -0.66 -0.37 -0.65 -0.4 -0.62 -0.43 -0.6 -0.46 -0.59 -0.49 -0.56 -0.52 -0.54 -0.54 -0.52 -0.56 -0.49 -0.59 -0.46 -0.61 -0.44 -0.62 -0.4 -0.64 -0.37 -0.66 -0.34 -0.68 -0.31 -0.69 -0.27 -0.71 -0.24 -0.72 -0.2 -0.74 -0.17 -0.75 -0.13 -0.76 -0.1 -0.8 -0.06 -0.83 -0.02 0.01 -60.92 3.89 0.1 3.86 0.3 3.83 0.49 3.77 0.67 3.7 0.85 3.64 1.04 3.56 1.2 3.47 1.37 3.39 1.54 3.3 1.69 3.2 1.84 3.1 1.99 2.99 2.12 2.87 2.26 2.77 2.39 2.65 2.52 2.52 2.65 2.39 2.77 2.26 2.87 2.13 2.99 1.98 3.11 1.83 3.19 1.69 3.3 1.54 3.39 1.37 3.47 1.2 3.56 1.03 3.63 0.86 3.71 0.67 3.76 0.48 3.81 0.3 3.87 0.09 3.9 0 0 -0 0zm0 0c0,16.82 -13.64,30.46 -30.46,30.46 -16.82,0 -30.46,-13.64 -30.46,-30.46l60.92 0 -0 0zm-60.92 596.56l-0 -596.56 60.92 0 0 596.56 0 0 -60.92 -0zm60.92 0c0,16.82 -13.64,30.46 -30.46,30.46 -16.82,0 -30.46,-13.64 -30.46,-30.46l60.92 0 -0 0zm-76.35 76.35l0 -60.92 0 0 0.82 -0.02 0.79 -0.06 0.78 -0.1 0.76 -0.13 0.73 -0.17 0.72 -0.2 0.71 -0.24 0.7 -0.28 0.67 -0.3 0.66 -0.34 0.65 -0.37 0.62 -0.39 0.61 -0.43 0.59 -0.46 0.57 -0.49 0.54 -0.52 0.52 -0.54 0.49 -0.56 0.46 -0.59 0.44 -0.61 0.4 -0.63 0.37 -0.64 0.34 -0.66 0.31 -0.67 0.27 -0.69 0.24 -0.71 0.2 -0.72 0.17 -0.74 0.13 -0.75 0.1 -0.76 0.06 -0.79 0.02 -0.83 60.92 0.01 -0.1 3.89 -0.29 3.86 -0.49 3.83 -0.67 3.76 -0.85 3.7 -1.04 3.63 -1.2 3.56 -1.37 3.48 -1.54 3.39 -1.69 3.3 -1.84 3.2 -1.99 3.1 -2.12 2.98 -2.26 2.87 -2.39 2.77 -2.52 2.65 -2.65 2.52 -2.77 2.4 -2.87 2.26 -2.99 2.13 -3.11 1.99 -3.19 1.83 -3.3 1.69 -3.39 1.54 -3.47 1.37 -3.56 1.2 -3.64 1.04 -3.71 0.85 -3.76 0.67 -3.81 0.49 -3.87 0.3 -3.9 0.09 0 0 -0 0zm0 0c-16.82,0 -30.46,-13.64 -30.46,-30.46 0,-16.82 13.64,-30.46 30.46,-30.46l0 60.92 0 0zm-688.34 -60.92l688.34 -0 0 60.92 -688.34 0 -0 0 0 -60.92zm0 60.92c-16.82,0 -30.46,-13.64 -30.46,-30.46 0,-16.82 13.64,-30.46 30.46,-30.46l0 60.92 0 0zm-76.35 -76.35l60.92 0 0 0 0.02 0.82 0.06 0.79 0.1 0.78 0.13 0.75 0.17 0.73 0.2 0.72 0.24 0.71 0.28 0.7 0.3 0.67 0.34 0.66 0.37 0.65 0.39 0.62 0.43 0.61 0.46 0.59 0.49 0.56 0.52 0.54 0.54 0.52 0.56 0.49 0.59 0.46 0.61 0.44 0.63 0.4 0.64 0.37 0.66 0.34 0.67 0.31 0.69 0.27 0.71 0.24 0.72 0.2 0.74 0.17 0.75 0.13 0.76 0.1 0.79 0.06 0.83 0.02 -0.01 60.93 -3.89 -0.1 -3.86 -0.29 -3.83 -0.49 -3.76 -0.68 -3.7 -0.85 -3.63 -1.04 -3.56 -1.2 -3.48 -1.37 -3.39 -1.54 -3.3 -1.69 -3.2 -1.84 -3.1 -1.99 -2.98 -2.12 -2.87 -2.26 -2.77 -2.39 -2.65 -2.52 -2.52 -2.65 -2.4 -2.77 -2.26 -2.87 -2.13 -2.99 -1.99 -3.11 -1.83 -3.19 -1.69 -3.3 -1.54 -3.39 -1.37 -3.47 -1.2 -3.56 -1.04 -3.64 -0.86 -3.71 -0.67 -3.76 -0.49 -3.81 -0.3 -3.87 -0.09 -3.9 0 0 0 -0zm0 0c0,-16.82 13.64,-30.46 30.46,-30.46 16.82,0 30.46,13.64 30.46,30.46l-60.92 0 0 0zm60.92 -596.56l0 596.55 -60.92 0 -0 -596.55 0 -0 60.92 0zm-60.92 0c0,-16.82 13.64,-30.46 30.46,-30.46 16.82,0 30.46,13.64 30.46,30.46l-60.92 0 0 0zm76.35 -76.35l0 60.93 0 0 -0.83 0.02 -0.79 0.06 -0.78 0.1 -0.76 0.13 -0.73 0.17 -0.72 0.2 -0.71 0.24 -0.7 0.28 -0.67 0.3 -0.66 0.34 -0.65 0.37 -0.63 0.4 -0.61 0.43 -0.59 0.46 -0.56 0.49 -0.54 0.51 -0.52 0.55 -0.49 0.56 -0.46 0.59 -0.44 0.61 -0.4 0.62 -0.37 0.64 -0.34 0.66 -0.31 0.68 -0.27 0.69 -0.24 0.71 -0.2 0.72 -0.17 0.74 -0.13 0.76 -0.1 0.76 -0.06 0.8 -0.02 0.83 -60.93 -0.01 0.1 -3.89 0.29 -3.86 0.49 -3.83 0.68 -3.76 0.85 -3.7 1.04 -3.63 1.2 -3.56 1.37 -3.47 1.54 -3.39 1.69 -3.3 1.84 -3.2 1.99 -3.11 2.12 -2.98 2.26 -2.88 2.4 -2.76 2.51 -2.64 2.65 -2.53 2.77 -2.39 2.87 -2.26 2.99 -2.13 3.1 -1.98 3.2 -1.84 3.3 -1.69 3.39 -1.54 3.47 -1.37 3.56 -1.2 3.64 -1.03 3.71 -0.85 3.76 -0.67 3.81 -0.48 3.87 -0.3 3.9 -0.1 0 0 0.01 0zm0 0c16.82,0 30.46,13.64 30.46,30.46 0,16.82 -13.63,30.46 -30.46,30.46l0 -60.92 0 0z"/>
   <path class="fil2" d="M1378.19 1318.8c-16.82,0 -30.46,-13.64 -30.46,-30.46 0,-16.82 13.64,-30.46 30.46,-30.46l0 60.92 0 0zm780.12 0l-780.11 0 0 -60.93 780.11 0 0 60.93zm0 -60.93c16.82,0 30.46,13.64 30.46,30.46 0,16.82 -13.64,30.46 -30.46,30.46l0 -60.92 0 0z"/>
   <path class="fil2" d="M1737.79 990.06c0,-16.82 13.64,-30.46 30.46,-30.46 16.82,0 30.46,13.64 30.46,30.46l-60.93 0 0 0zm0 298.28l0 -298.28 60.92 0 0 298.28 -60.92 0zm60.92 0c0,16.82 -13.64,30.46 -30.46,30.46 -16.82,0 -30.46,-13.64 -30.46,-30.46l60.92 0 0 0z"/>
   <path class="fil1" d="M626.75 990.06l688.34 0c25.34,0 45.89,20.55 45.89,45.89l0 596.56c0,25.34 -20.55,45.89 -45.89,45.89l-688.34 0c-25.33,-0 -45.89,-20.55 -45.89,-45.89l0 -596.56c0,-25.34 20.55,-45.89 45.89,-45.89l-0 -0z"/>
   <path class="fil0" d="M1315.09 1020.52l-688.34 0 0 -60.93 688.34 0 0 0 -0 60.93zm0 -60.92c16.82,0 30.46,13.64 30.46,30.46 0,16.82 -13.64,30.46 -30.46,30.46l0 -60.93 0 0zm76.35 76.35l-60.92 0 0 0 -0.02 -0.83 -0.06 -0.79 -0.1 -0.78 -0.14 -0.76 -0.17 -0.73 -0.2 -0.72 -0.24 -0.71 -0.28 -0.7 -0.3 -0.67 -0.34 -0.66 -0.37 -0.65 -0.4 -0.62 -0.43 -0.6 -0.46 -0.59 -0.48 -0.56 -0.52 -0.54 -0.55 -0.53 -0.56 -0.49 -0.59 -0.46 -0.61 -0.44 -0.62 -0.4 -0.64 -0.37 -0.67 -0.34 -0.68 -0.31 -0.69 -0.27 -0.7 -0.24 -0.72 -0.2 -0.74 -0.17 -0.75 -0.13 -0.76 -0.1 -0.8 -0.06 -0.83 -0.02 0.01 -60.92 3.89 0.1 3.86 0.3 3.83 0.49 3.77 0.67 3.7 0.85 3.64 1.03 3.56 1.2 3.48 1.37 3.39 1.54 3.3 1.69 3.2 1.84 3.1 1.99 2.98 2.12 2.88 2.26 2.76 2.39 2.64 2.52 2.52 2.65 2.4 2.77 2.26 2.87 2.13 2.99 1.98 3.11 1.83 3.19 1.69 3.3 1.54 3.39 1.37 3.47 1.2 3.56 1.03 3.64 0.86 3.71 0.67 3.76 0.48 3.81 0.3 3.87 0.1 3.9 0 0 -0 0.01zm0 0c0,16.82 -13.64,30.46 -30.46,30.46 -16.82,0 -30.46,-13.64 -30.46,-30.46l60.93 0 -0 0zm-60.92 596.56l0 -596.56 60.92 0 0 596.56 0 0 -60.92 0zm60.92 0c0,16.82 -13.64,30.46 -30.46,30.46 -16.82,0 -30.46,-13.64 -30.46,-30.46l60.92 0 0 0zm-76.35 76.35l0 -60.92 0 0 0.83 -0.02 0.79 -0.06 0.78 -0.1 0.76 -0.13 0.73 -0.17 0.72 -0.2 0.71 -0.24 0.7 -0.28 0.67 -0.3 0.66 -0.34 0.65 -0.37 0.62 -0.39 0.61 -0.43 0.58 -0.46 0.56 -0.49 0.55 -0.52 0.52 -0.54 0.49 -0.56 0.46 -0.59 0.43 -0.61 0.4 -0.62 0.37 -0.65 0.34 -0.66 0.3 -0.67 0.27 -0.69 0.24 -0.71 0.21 -0.72 0.17 -0.73 0.13 -0.75 0.1 -0.78 0.06 -0.79 0.02 -0.83 60.93 0 -0.1 3.89 -0.3 3.87 -0.48 3.81 -0.67 3.76 -0.85 3.71 -1.03 3.63 -1.2 3.56 -1.37 3.48 -1.54 3.4 -1.69 3.3 -1.83 3.19 -1.98 3.1 -2.13 2.99 -2.26 2.87 -2.4 2.77 -2.52 2.65 -2.64 2.52 -2.76 2.39 -2.88 2.26 -2.99 2.13 -3.1 1.98 -3.19 1.83 -3.3 1.69 -3.39 1.54 -3.47 1.37 -3.56 1.2 -3.63 1.03 -3.71 0.85 -3.76 0.67 -3.81 0.48 -3.87 0.3 -3.9 0.09 0 0 -0.01 0.01zm0 0c-16.82,0 -30.46,-13.64 -30.46,-30.46 0,-16.82 13.64,-30.46 30.46,-30.46l0 60.92 0 0zm-688.34 -60.92l688.34 -0 0 60.92 -688.34 0 -0 0 0 -60.92zm0 60.92c-16.82,0 -30.46,-13.64 -30.46,-30.46 0,-16.82 13.64,-30.46 30.46,-30.46l0 60.92 0 0zm-76.35 -76.35l60.92 0 0 0 0.02 0.82 0.06 0.79 0.1 0.78 0.14 0.75 0.17 0.73 0.2 0.72 0.24 0.71 0.28 0.7 0.3 0.67 0.34 0.66 0.38 0.65 0.39 0.62 0.43 0.61 0.46 0.59 0.49 0.56 0.51 0.54 0.55 0.52 0.57 0.49 0.59 0.46 0.61 0.44 0.62 0.4 0.64 0.37 0.67 0.34 0.68 0.31 0.69 0.27 0.7 0.24 0.72 0.2 0.74 0.17 0.75 0.13 0.76 0.1 0.8 0.06 0.83 0.02 -0 60.93 -3.89 -0.1 -3.86 -0.3 -3.83 -0.48 -3.77 -0.68 -3.7 -0.85 -3.64 -1.03 -3.56 -1.2 -3.48 -1.37 -3.38 -1.53 -3.3 -1.69 -3.2 -1.84 -3.1 -1.98 -2.98 -2.12 -2.88 -2.26 -2.76 -2.39 -2.65 -2.52 -2.53 -2.65 -2.39 -2.77 -2.26 -2.87 -2.13 -2.99 -1.98 -3.1 -1.83 -3.19 -1.69 -3.3 -1.54 -3.4 -1.37 -3.47 -1.2 -3.56 -1.03 -3.63 -0.86 -3.71 -0.67 -3.76 -0.48 -3.81 -0.3 -3.87 -0.09 -3.9 0 0 0 -0.01zm0 0c0,-16.82 13.64,-30.46 30.46,-30.46 16.82,0 30.46,13.64 30.46,30.46l-60.92 0 0 0zm60.92 -596.56l0 596.55 -60.92 0 0 -596.55 0 0 60.92 0zm-60.92 0c0,-16.82 13.64,-30.46 30.46,-30.46 16.82,0 30.46,13.64 30.46,30.46l-60.92 0 0 0zm76.35 -76.35l0 60.93 0 0 -0.82 0.02 -0.79 0.06 -0.78 0.1 -0.75 0.13 -0.73 0.17 -0.72 0.2 -0.71 0.24 -0.7 0.28 -0.67 0.3 -0.66 0.34 -0.65 0.37 -0.63 0.4 -0.61 0.43 -0.59 0.46 -0.57 0.49 -0.54 0.52 -0.52 0.55 -0.49 0.56 -0.46 0.59 -0.43 0.6 -0.4 0.62 -0.37 0.65 -0.34 0.67 -0.3 0.67 -0.27 0.69 -0.24 0.71 -0.2 0.72 -0.17 0.73 -0.13 0.76 -0.1 0.78 -0.06 0.79 -0.02 0.83 -60.92 -0 0.1 -3.89 0.29 -3.87 0.49 -3.81 0.67 -3.76 0.85 -3.71 1.04 -3.63 1.2 -3.56 1.37 -3.47 1.54 -3.4 1.69 -3.29 1.83 -3.19 1.99 -3.11 2.13 -2.99 2.26 -2.88 2.4 -2.77 2.52 -2.64 2.65 -2.52 2.76 -2.39 2.88 -2.27 2.99 -2.13 3.1 -1.98 3.2 -1.84 3.3 -1.69 3.4 -1.54 3.47 -1.37 3.56 -1.2 3.63 -1.03 3.71 -0.85 3.76 -0.67 3.81 -0.48 3.87 -0.3 3.9 -0.09 0 0 0 -0.01zm0 0c16.82,0 30.46,13.64 30.46,30.46 0,16.82 -13.64,30.46 -30.46,30.46l0 -60.92 0 0z"/>
   <path class="fil2" d="M580.86 1318.8c-16.82,0 -30.46,-13.64 -30.46,-30.46 0,-16.82 13.64,-30.46 30.46,-30.46l0 60.92 0 0zm780.12 0l-780.12 0 0 -60.93 780.12 0 0 60.93zm0 -60.93c16.82,0 30.46,13.64 30.46,30.46 0,16.82 -13.64,30.46 -30.46,30.46l0 -60.92 0 0z"/>
   <path class="fil2" d="M940.46 990.06c0,-16.82 13.64,-30.46 30.46,-30.46 16.82,0 30.46,13.64 30.46,30.46l-60.93 0 0 0zm0 298.28l0 -298.28 60.92 0 0 298.28 -60.92 0zm60.92 0c0,16.82 -13.64,30.46 -30.46,30.46 -16.82,0 -30.46,-13.64 -30.46,-30.46l60.92 0 0 0z"/>
  </g>
 </g>
</svg>
