<?xml version="1.0" encoding="UTF-8"?>
<!DOCTYPE svg PUBLIC "-//W3C//DTD SVG 1.1//EN" "http://www.w3.org/Graphics/SVG/1.1/DTD/svg11.dtd">
<!-- Creator: CorelDRAW -->
<svg xmlns="http://www.w3.org/2000/svg" xml:space="preserve" width="0.698858in" height="0.702224in" version="1.1" style="shape-rendering:geometricPrecision; text-rendering:geometricPrecision; image-rendering:optimizeQuality; fill-rule:evenodd; clip-rule:evenodd"
viewBox="0 0 216.12 217.16"
 xmlns:xlink="http://www.w3.org/1999/xlink"
 xmlns:xodm="http://www.corel.com/coreldraw/odm/2003">
 <defs>
  <style type="text/css">
   <![CDATA[
    .fil0 {fill:#B7B7B7}
   ]]>
  </style>
 </defs>
 <g id="Layer_x0020_1">
  <metadata id="CorelCorpID_0Corel-Layer"/>
  <path id="whatsapp-icon.svg" class="fil0" d="M184.63 31.56c-20.31,-20.34 -47.33,-31.55 -76.12,-31.56 -59.31,0 -107.59,48.27 -107.61,107.6 -0.01,18.97 4.95,37.48 14.36,53.8l-15.27 55.77 57.04 -14.96c15.72,8.58 33.41,13.09 51.42,13.1l0.05 0c59.31,0 107.58,-48.27 107.61,-107.61 0.01,-28.75 -11.17,-55.79 -31.49,-76.13l0 -0 0 0zm-76.12 165.56l-0.04 0c-16.05,-0 -31.79,-4.32 -45.52,-12.47l-3.27 -1.94 -33.85 8.88 9.04 -33.01 -2.13 -3.38c-8.95,-14.24 -13.68,-30.7 -13.67,-47.6 0.02,-49.31 40.14,-89.43 89.48,-89.43 23.89,0.01 46.35,9.32 63.23,26.23 16.89,16.9 26.18,39.38 26.17,63.27 -0.02,49.32 -40.14,89.44 -89.44,89.44l0 0zm49.06 -66.98c-2.69,-1.35 -15.91,-7.85 -18.37,-8.75 -2.47,-0.9 -4.26,-1.35 -6.05,1.35 -1.79,2.69 -6.94,8.75 -8.51,10.54 -1.57,1.8 -3.14,2.02 -5.83,0.67 -2.69,-1.35 -11.35,-4.18 -21.62,-13.34 -7.99,-7.13 -13.39,-15.93 -14.96,-18.63 -1.57,-2.69 -0.17,-4.15 1.18,-5.48 1.21,-1.21 2.69,-3.14 4.03,-4.71 1.35,-1.57 1.79,-2.69 2.69,-4.48 0.9,-1.8 0.45,-3.36 -0.22,-4.71 -0.67,-1.35 -6.05,-14.58 -8.29,-19.96 -2.18,-5.24 -4.4,-4.53 -6.05,-4.62 -1.57,-0.08 -3.36,-0.09 -5.15,-0.09 -1.8,0 -4.71,0.67 -7.17,3.37 -2.47,2.69 -9.41,9.2 -9.41,22.43 0,13.23 9.63,26.02 10.98,27.82 1.35,1.79 18.96,28.95 45.93,40.6 6.41,2.77 11.42,4.43 15.33,5.67 6.44,2.05 12.3,1.76 16.93,1.07 5.17,-0.77 15.91,-6.51 18.15,-12.79 2.24,-6.28 2.24,-11.67 1.57,-12.78 -0.67,-1.12 -2.47,-1.8 -5.15,-3.14l0 -0.01 -0 0z"/>
 </g>
</svg>
