<?xml version="1.0" encoding="UTF-8"?>
<!DOCTYPE svg PUBLIC "-//W3C//DTD SVG 1.1//EN" "http://www.w3.org/Graphics/SVG/1.1/DTD/svg11.dtd">
<!-- Creator: CorelDRAW -->
<svg xmlns="http://www.w3.org/2000/svg" xml:space="preserve" width="0.702224in" height="0.494748in" version="1.1" style="shape-rendering:geometricPrecision; text-rendering:geometricPrecision; image-rendering:optimizeQuality; fill-rule:evenodd; clip-rule:evenodd"
viewBox="0 0 292.05 205.76"
 xmlns:xlink="http://www.w3.org/1999/xlink"
 xmlns:xodm="http://www.corel.com/coreldraw/odm/2003">
 <defs>
  <style type="text/css">
   <![CDATA[
    .fil0 {fill:#B7B7B7}
   ]]>
  </style>
 </defs>
 <g id="Layer_x0020_1">
  <metadata id="CorelCorpID_0Corel-Layer"/>
  <path id="youtube-app-white-icon.svg" class="fil0" d="M260.13 6.14c12.57,3.38 22.46,13.34 25.82,25.99 6.1,22.92 6.1,70.75 6.1,70.75 0,0 0,47.83 -6.1,70.75 -3.36,12.65 -13.25,22.61 -25.82,25.99 -22.78,6.14 -114.1,6.14 -114.1,6.14 0,0 -91.33,0 -114.1,-6.14 -12.57,-3.38 -22.46,-13.34 -25.82,-25.99 -6.1,-22.93 -6.1,-70.75 -6.1,-70.75 0,0 0,-47.83 6.1,-70.75 3.36,-12.65 13.25,-22.61 25.82,-25.99 22.77,-6.14 114.1,-6.14 114.1,-6.14 0,0 91.33,0 114.1,6.14l0 0zm-143.97 140.16l76.33 -43.42 -76.33 -43.43 0 86.85z"/>
 </g>
</svg>
