<?xml version="1.0" encoding="UTF-8"?>
<!DOCTYPE svg PUBLIC "-//W3C//DTD SVG 1.1//EN" "http://www.w3.org/Graphics/SVG/1.1/DTD/svg11.dtd">
<!-- Creator: CorelDRAW -->
<svg xmlns="http://www.w3.org/2000/svg" xml:space="preserve" width="0.868071in" height="0.856669in" version="1.1" style="shape-rendering:geometricPrecision; text-rendering:geometricPrecision; image-rendering:optimizeQuality; fill-rule:evenodd; clip-rule:evenodd"
viewBox="0 0 140.78 138.93"
 xmlns:xlink="http://www.w3.org/1999/xlink"
 xmlns:xodm="http://www.corel.com/coreldraw/odm/2003">
 <defs>
  <style type="text/css">
   <![CDATA[
    .str0 {stroke:#0D0D0D;stroke-width:10.81;stroke-linecap:round;stroke-miterlimit:2.61313}
    .fil0 {fill:none}
    .fil1 {fill:black;fill-rule:nonzero}
   ]]>
  </style>
 </defs>
 <g id="Layer_x0020_1">
  <metadata id="CorelCorpID_0Corel-Layer"/>
  <g id="_2558117416160">
   <path class="fil0 str0" d="M42.39 5.41l77.85 0c8.33,0 15.14,6.81 15.14,15.14l0 97.85c0,8.33 -6.81,15.14 -15.14,15.14l-77.85 0"/>
   <g>
    <path class="fil1" d="M46.23 30.84c2.36,-1.83 5.75,-1.41 7.59,0.95 1.83,2.36 1.41,5.75 -0.95,7.59l-6.64 -8.53zm-44.14 34.35l44.14 -34.35 6.64 8.53 -44.14 34.35 -6.64 -0 0 -8.53zm6.64 8.53c-2.36,1.83 -5.75,1.41 -7.59,-0.95 -1.83,-2.36 -1.41,-5.75 0.95,-7.59l6.64 8.53zm37.5 34.36l-44.14 -34.36 6.64 -8.53 44.14 34.36 -6.64 8.53zm6.64 -8.53c2.36,1.83 2.78,5.23 0.94,7.59 -1.83,2.36 -5.23,2.78 -7.59,0.94l6.64 -8.53zm-47.47 -24.69c-2.99,0 -5.41,-2.42 -5.41,-5.41 0,-2.99 2.42,-5.41 5.41,-5.41l0 10.81zm38.64 0l-38.64 0 0 -10.81 38.64 0 0 0 0 10.81zm0 -10.81c2.99,0 5.41,2.42 5.41,5.41 0,2.99 -2.42,5.41 -5.41,5.41l0 -10.81zm38.66 10.81l-38.66 0 0 -10.81 38.66 0 0 10.81zm0 -10.81c2.99,0 5.41,2.42 5.41,5.41 0,2.99 -2.42,5.41 -5.41,5.41l0 -10.81z"/>
   </g>
  </g>
 </g>
</svg>
