<?xml version="1.0" encoding="UTF-8"?>
<!DOCTYPE svg PUBLIC "-//W3C//DTD SVG 1.1//EN" "http://www.w3.org/Graphics/SVG/1.1/DTD/svg11.dtd">
<!-- Creator: CorelDRAW -->
<svg xmlns="http://www.w3.org/2000/svg" xml:space="preserve" width="0.206256in" height="0.206256in" version="1.1" style="shape-rendering:geometricPrecision; text-rendering:geometricPrecision; image-rendering:optimizeQuality; fill-rule:evenodd; clip-rule:evenodd"
viewBox="0 0 8.96 8.96"
 xmlns:xlink="http://www.w3.org/1999/xlink"
 xmlns:xodm="http://www.corel.com/coreldraw/odm/2003">
 <defs>
  <style type="text/css">
   <![CDATA[
    .str0 {stroke:black;stroke-width:0.81;stroke-linecap:round;stroke-linejoin:round;stroke-miterlimit:2.61313}
    .fil0 {fill:none}
    .fil1 {fill:black;fill-rule:nonzero}
   ]]>
  </style>
 </defs>
 <g id="Layer_x0020_1">
  <metadata id="CorelCorpID_0Corel-Layer"/>
  <circle class="fil0 str0" cx="4.48" cy="4.48" r="4.07"/>
  <path class="fil1" d="M4.56 6.7l0 -1.14c0,-0.1 -0.03,-0.18 -0.08,-0.25 -0.05,-0.06 -0.14,-0.09 -0.26,-0.09l-1.44 0 0 -0.76 1.15 0c0.25,0 0.44,-0.06 0.57,-0.18 0.13,-0.12 0.19,-0.31 0.19,-0.56 0,-0.25 -0.06,-0.44 -0.19,-0.56 -0.13,-0.12 -0.32,-0.18 -0.57,-0.18l-1.15 0 0 -0.71 3.42 0 0 0.65 -1.09 0 0 0.11c0.12,0.08 0.22,0.18 0.29,0.3 0.07,0.12 0.11,0.29 0.11,0.51 0,0.23 -0.06,0.42 -0.17,0.56 -0.12,0.15 -0.27,0.26 -0.47,0.32l0 0.11c0.17,0.01 0.3,0.07 0.39,0.17 0.09,0.11 0.14,0.25 0.14,0.43l0 1.26 -0.84 0zm-1.78 -2.66l0 -0.65 3.42 0 0 0.65 -3.42 0z"/>
 </g>
</svg>
